<?xml version="1.0" encoding="UTF-8"?>
<svg width="56px" height="56px" viewBox="0 0 56 56" version="1.1" xmlns="http://www.w3.org/2000/svg" xmlns:xlink="http://www.w3.org/1999/xlink">
    <title>transfer-1</title>
    <defs>
        <filter id="filter-1">
            <feColorMatrix in="SourceGraphic" type="matrix" values="0 0 0 0 0.200000 0 0 0 0 0.580392 0 0 0 0 1.000000 0 0 0 1.000000 0"></feColorMatrix>
        </filter>
    </defs>
    <g id="首页" stroke="none" stroke-width="1" fill="none" fill-rule="evenodd">
        <g id="ACA余额" transform="translate(-32.000000, -877.000000)">
            <g id="transfer-1" transform="translate(32.000000, 877.000000)">
                <path d="M24.3190287,-7.93392707e-16 L31.6809713,7.93392707e-16 C39.0123707,-5.53363529e-16 42.5091978,0.928256111 45.768457,2.67132704 C49.0277163,4.41439796 51.585602,6.97228371 53.328673,10.231543 C55.0717439,13.4908022 56,16.9876293 56,24.3190287 L56,31.6809713 C56,39.0123707 55.0717439,42.5091978 53.328673,45.768457 C51.585602,49.0277163 49.0277163,51.585602 45.768457,53.328673 C42.5091978,55.0717439 39.0123707,56 31.6809713,56 L24.3190287,56 C16.9876293,56 13.4908022,55.0717439 10.231543,53.328673 C6.97228371,51.585602 4.41439796,49.0277163 2.67132704,45.768457 C0.928256111,42.5091978 3.68909019e-16,39.0123707 -5.28928471e-16,31.6809713 L5.28928471e-16,24.3190287 C-3.68909019e-16,16.9876293 0.928256111,13.4908022 2.67132704,10.231543 C4.41439796,6.97228371 6.97228371,4.41439796 10.231543,2.67132704 C13.4908022,0.928256111 16.9876293,5.53363529e-16 24.3190287,-7.93392707e-16 Z" id="矩形备份-3" fill="#DFEEFF"></path>
                <g filter="url(#filter-1)" id="编组-4备份-2" stroke-linecap="round">
                    <g transform="translate(19.000000, 14.000000)">
                        <path d="M11,2 L11,21.5889878 C11,25.1296921 8.53756612,28 5.5,28 C2.46243388,28 0,25.1296921 0,21.5889878 L0,20.510566" id="路径" stroke="#3394FF" stroke-width="4"></path>
                        <polyline id="路径" stroke="#3394FF" stroke-width="4" stroke-linejoin="round" points="3 9 11 0 19 9"></polyline>
                    </g>
                </g>
            </g>
        </g>
    </g>
</svg>