<?xml version="1.0" encoding="UTF-8"?>
<svg width="20px" height="20px" viewBox="0 0 20 20" version="1.1" xmlns="http://www.w3.org/2000/svg" xmlns:xlink="http://www.w3.org/1999/xlink">
    <title>change</title>
    <g id="页面-1" stroke="none" stroke-width="1" fill="none" fill-rule="evenodd">
        <g id="调整assets" transform="translate(-249.000000, -203.000000)">
            <g id="change" transform="translate(249.000000, 203.000000)">
                <rect id="矩形" fill="#BBBBBB" opacity="0" x="0" y="0" width="20" height="20"></rect>
                <path d="M5.28583098,2.14305163 L7.19710085,5.32850141 C7.2918169,5.4863615 7.24062855,5.69111492 7.08276846,5.78583098 C7.03096332,5.81691406 6.97168452,5.83333333 6.91126987,5.83333333 L3.08873013,5.83333333 C2.90463521,5.83333333 2.75539679,5.68409492 2.75539679,5.5 C2.75539679,5.43958535 2.77181607,5.38030655 2.80289915,5.32850141 L4.71416902,2.14305163 C4.80888508,1.98519154 5.0136385,1.93400318 5.17149859,2.02871924 C5.21841512,2.05686916 5.25768105,2.09613509 5.28583098,2.14305163 Z" id="三角形" fill="#BBBBBB" transform="translate(5.000000, 3.750000) rotate(-90.000000) translate(-5.000000, -3.750000) "></path>
                <path d="M15.285831,14.6430516 L17.1971008,17.8285014 C17.2918169,17.9863615 17.2406285,18.1911149 17.0827685,18.285831 C17.0309633,18.3169141 16.9716845,18.3333333 16.9112699,18.3333333 L13.0887301,18.3333333 C12.9046352,18.3333333 12.7553968,18.1840949 12.7553968,18 C12.7553968,17.9395854 12.7718161,17.8803065 12.8028992,17.8285014 L14.714169,14.6430516 C14.8088851,14.4851915 15.0136385,14.4340032 15.1714986,14.5287192 C15.2184151,14.5568692 15.2576811,14.5961351 15.285831,14.6430516 Z" id="三角形" fill="#BBBBBB" transform="translate(15.000000, 16.250000) scale(-1, 1) rotate(-90.000000) translate(-15.000000, -16.250000) "></path>
                <path d="M9.58333333,3.75 C14.3055556,3.75 16.6666667,5.83333333 16.6666667,10" id="路径-11" stroke="#BBBBBB" stroke-width="1.66666667" stroke-linecap="round"></path>
                <path d="M3.75,10.005144 C3.75,10.005144 10.8333333,9.58847737 10.8333333,16.255144" id="路径-11" stroke="#BBBBBB" stroke-width="1.66666667" stroke-linecap="round" transform="translate(7.291667, 13.127572) scale(-1, -1) translate(-7.291667, -13.127572) "></path>
                <line x1="10.8333333" y1="16.25" x2="13.3333333" y2="16.25" id="路径" stroke="#BBBBBB" stroke-width="1.66666667"></line>
                <line x1="9.58333333" y1="3.75" x2="6.66666667" y2="3.75" id="路径-2" stroke="#BBBBBB" stroke-width="1.66666667"></line>
            </g>
        </g>
    </g>
</svg>