<?xml version="1.0" encoding="UTF-8"?>
<svg width="20px" height="20px" viewBox="0 0 20 20" version="1.1" xmlns="http://www.w3.org/2000/svg" xmlns:xlink="http://www.w3.org/1999/xlink">
    <title>编组_6</title>
    <defs>
        <filter id="filter-1">
            <feColorMatrix in="SourceGraphic" type="matrix" values="0 0 0 0 1.000000 0 0 0 0 1.000000 0 0 0 0 1.000000 0 0 0 1.000000 0"></feColorMatrix>
        </filter>
        <filter id="filter-2">
            <feColorMatrix in="SourceGraphic" type="matrix" values="0 0 0 0 0.337255 0 0 0 0 0.333333 0 0 0 0 0.329412 0 0 0 1.000000 0"></feColorMatrix>
        </filter>
    </defs>
    <g id="页面-1" stroke="none" stroke-width="1" fill="none" fill-rule="evenodd">
        <g id="编组-6" transform="translate(-306.000000, -128.000000)" filter="url(#filter-1)">
            <g transform="translate(306.000000, 128.000000)" filter="url(#filter-2)" id="编组-9">
                <g transform="translate(0.322581, 0.000000)">
                    <path d="M5.04874376,16.2869198 C5.20703028,16.2869198 5.33641722,16.3923139 5.34545725,16.525209 L5.3459618,16.5400844 L5.3459618,19.7468354 C5.3459618,19.8866544 5.21289275,20 5.04874376,20 C4.89045723,20 4.76107029,19.8946059 4.75203027,19.7617108 L4.75152572,19.7468354 L4.75152572,16.5400844 C4.75152572,16.4002655 4.88459477,16.2869198 5.04874376,16.2869198 Z M5.04874376,0.0843881857 C5.20703028,0.0843881857 5.33641722,0.189782275 5.34545725,0.322677402 L5.3459618,0.337552743 L5.3459618,3.62869198 C5.3459618,3.76851091 5.21289275,3.88185654 5.04874376,3.88185654 C4.89045723,3.88185654 4.76107029,3.77646245 4.75203027,3.64356732 L4.75152572,3.62869198 L4.75152572,0.337552743 C4.75152572,0.197733819 4.88459477,0.0843881857 5.04874376,0.0843881857 Z" id="形状" fill="#979797" fill-rule="nonzero"></path>
                    <path d="M19.0932868,5.2742616 C19.2377379,5.2742616 19.3548387,5.40626972 19.3548387,5.56910998 C19.3548387,5.72613452 19.2459529,5.85448989 19.108655,5.86345784 L19.0932868,5.86395837 L16.652136,5.86395837 C16.5076849,5.86395837 16.3905841,5.73195025 16.3905841,5.56910998 C16.3905841,5.41208544 16.4994699,5.28373008 16.6367678,5.27476213 L16.652136,5.2742616 L19.0932868,5.2742616 Z M2.7027027,5.2742616 C2.84715381,5.2742616 2.96425458,5.40626972 2.96425458,5.56910998 C2.96425458,5.72613452 2.85536879,5.85448989 2.71807086,5.86345784 L2.7027027,5.86395837 L0.261551874,5.86395837 C0.117100763,5.86395837 0,5.73195025 0,5.56910998 C0,5.41208544 0.108885786,5.28373008 0.246183715,5.27476213 L0.261551874,5.2742616 L2.7027027,5.2742616 Z" id="形状" fill="#979797" fill-rule="nonzero"></path>
                    <path d="M8.10018229,16.2869198 C8.25846882,16.2869198 8.38785576,16.3923139 8.39689579,16.525209 L8.39740033,16.5400844 L8.39740033,19.7468354 C8.39740033,19.8866544 8.26433128,20 8.10018229,20 C7.94189577,20 7.81250883,19.8946059 7.8034688,19.7617108 L7.80296425,19.7468354 L7.80296425,16.5400844 C7.80296425,16.4002655 7.9360333,16.2869198 8.10018229,16.2869198 Z M8.10018229,0 C8.25846882,0 8.38785576,0.10539409 8.39689579,0.238289216 L8.39740033,0.253164557 L8.39740033,3.5443038 C8.39740033,3.68412272 8.26433128,3.79746835 8.10018229,3.79746835 C7.94189577,3.79746835 7.81250883,3.69207426 7.8034688,3.55917914 L7.80296425,3.5443038 L7.80296425,0.253164557 C7.80296425,0.113345633 7.9360333,0 8.10018229,0 Z" id="形状" fill="#979797" fill-rule="nonzero"></path>
                    <path d="M19.0932868,8.2278481 C19.2377379,8.2278481 19.3548387,8.35985622 19.3548387,8.52269648 C19.3548387,8.67972102 19.2459529,8.80807639 19.108655,8.81704434 L19.0932868,8.81754486 L16.652136,8.81754486 C16.5076849,8.81754486 16.3905841,8.68553675 16.3905841,8.52269648 C16.3905841,8.36567194 16.4994699,8.23731658 16.6367678,8.22834863 L16.652136,8.2278481 L19.0932868,8.2278481 Z M2.7027027,8.2278481 C2.84715381,8.2278481 2.96425458,8.35985622 2.96425458,8.52269648 C2.96425458,8.67972102 2.85536879,8.80807639 2.71807086,8.81704434 L2.7027027,8.81754486 L0.261551874,8.81754486 C0.117100763,8.81754486 0,8.68553675 0,8.52269648 C0,8.36567194 0.108885786,8.23731658 0.246183715,8.22834863 L0.261551874,8.2278481 L2.7027027,8.2278481 Z" id="形状" fill="#979797" fill-rule="nonzero"></path>
                    <path d="M11.1516208,16.2869198 C11.3099074,16.2869198 11.4392943,16.3923139 11.4483343,16.525209 L11.4488389,16.5400844 L11.4488389,19.7468354 C11.4488389,19.8866544 11.3157698,20 11.1516208,20 C10.9933343,20 10.8639474,19.8946059 10.8549073,19.7617108 L10.8544028,19.7468354 L10.8544028,16.5400844 C10.8544028,16.4002655 10.9874718,16.2869198 11.1516208,16.2869198 Z M11.1516208,0 C11.3099074,0 11.4392943,0.10539409 11.4483343,0.238289216 L11.4488389,0.253164557 L11.4488389,3.5443038 C11.4488389,3.68412272 11.3157698,3.79746835 11.1516208,3.79746835 C10.9933343,3.79746835 10.8639474,3.69207426 10.8549073,3.55917914 L10.8544028,3.5443038 L10.8544028,0.253164557 C10.8544028,0.113345633 10.9874718,0 11.1516208,0 Z" id="形状" fill="#979797" fill-rule="nonzero"></path>
                    <path d="M19.0932868,11.1814346 C19.2377379,11.1814346 19.3548387,11.3134427 19.3548387,11.476283 C19.3548387,11.6333075 19.2459529,11.7616629 19.108655,11.7706308 L19.0932868,11.7711314 L16.652136,11.7711314 C16.5076849,11.7711314 16.3905841,11.6391232 16.3905841,11.476283 C16.3905841,11.3192584 16.4994699,11.1909031 16.6367678,11.1819351 L16.652136,11.1814346 L19.0932868,11.1814346 Z M2.7027027,11.1814346 C2.84715381,11.1814346 2.96425458,11.3134427 2.96425458,11.476283 C2.96425458,11.6333075 2.85536879,11.7616629 2.71807086,11.7706308 L2.7027027,11.7711314 L0.261551874,11.7711314 C0.117100763,11.7711314 0,11.6391232 0,11.476283 C0,11.3192584 0.108885786,11.1909031 0.246183715,11.1819351 L0.261551874,11.1814346 L2.7027027,11.1814346 Z" id="形状" fill="#979797" fill-rule="nonzero"></path>
                    <path d="M14.2030594,16.2869198 C14.3613459,16.2869198 14.4907328,16.3923139 14.4997729,16.525209 L14.5002774,16.5400844 L14.5002774,19.7468354 C14.5002774,19.8866544 14.3672084,20 14.2030594,20 C14.0447728,20 13.9153859,19.8946059 13.9063459,19.7617108 L13.9058413,19.7468354 L13.9058413,16.5400844 C13.9058413,16.4002655 14.0389104,16.2869198 14.2030594,16.2869198 Z M14.2030594,0 C14.3613459,0 14.4907328,0.10539409 14.4997729,0.238289216 L14.5002774,0.253164557 L14.5002774,3.5443038 C14.5002774,3.68412272 14.3672084,3.79746835 14.2030594,3.79746835 C14.0447728,3.79746835 13.9153859,3.69207426 13.9063459,3.55917914 L13.9058413,3.5443038 L13.9058413,0.253164557 C13.9058413,0.113345633 14.0389104,0 14.2030594,0 Z" id="形状" fill="#979797" fill-rule="nonzero"></path>
                    <path d="M19.0932868,14.1350211 C19.2377379,14.1350211 19.3548387,14.2670292 19.3548387,14.4298695 C19.3548387,14.586894 19.2459529,14.7152494 19.108655,14.7242173 L19.0932868,14.7247179 L16.652136,14.7247179 C16.5076849,14.7247179 16.3905841,14.5927097 16.3905841,14.4298695 C16.3905841,14.2728449 16.4994699,14.1444896 16.6367678,14.1355216 L16.652136,14.1350211 L19.0932868,14.1350211 Z M2.7027027,14.1350211 C2.84715381,14.1350211 2.96425458,14.2670292 2.96425458,14.4298695 C2.96425458,14.586894 2.85536879,14.7152494 2.71807086,14.7242173 L2.7027027,14.7247179 L0.261551874,14.7247179 C0.117100763,14.7247179 0,14.5927097 0,14.4298695 C0,14.2728449 0.108885786,14.1444896 0.246183715,14.1355216 L0.261551874,14.1350211 L2.7027027,14.1350211 Z" id="形状" fill="#979797" fill-rule="nonzero"></path>
                    <g id="编组-8" transform="translate(2.092415, 2.700422)">
                        <path d="M12.3131775,0 C13.8428114,-2.80989197e-16 15.0828248,1.24001331 15.0828248,2.76964726 L15.0828248,11.8295089 C15.0828248,13.3591428 13.8428114,14.5991561 12.3131775,14.5991561 L2.76964726,14.5991561 C1.24001331,14.5991561 6.31415341e-16,13.3591428 0,11.8295089 L0,2.76964726 C-1.87326131e-16,1.24001331 1.24001331,-1.63100013e-16 2.76964726,0 L12.3131775,0 Z M12.3466498,1.30801688 L2.73617498,1.30801688 C1.97135801,1.30801688 1.35135135,1.92802353 1.35135135,2.69284051 L1.35135135,2.69284051 L1.35135135,11.9063156 C1.35135135,12.6711326 1.97135801,13.2911392 2.73617498,13.2911392 L2.73617498,13.2911392 L12.3466498,13.2911392 C13.1114668,13.2911392 13.7314734,12.6711326 13.7314734,11.9063156 L13.7314734,11.9063156 L13.7314734,2.69284051 C13.7314734,1.92802353 13.1114668,1.30801688 12.3466498,1.30801688 L12.3466498,1.30801688 Z" id="形状结合" fill="#646262"></path>
                        <g id="EVM" transform="translate(2.902382, 5.348984)" fill="#565554" fill-rule="nonzero">
                            <polygon id="E" points="0 3.2969697 0 0 2.19771072 0 2.19771072 0.581818182 0.689281998 0.581818182 0.689281998 1.35272727 1.89802289 1.35272727 1.89802289 1.92484848 0.689281998 1.92484848 0.689281998 2.71515152 2.19771072 2.71515152 2.19771072 3.2969697"></polygon>
                            <polygon id="V" points="4.60520291 0 5.32944849 0 4.54027055 3.2969697 3.26659729 3.2969697 2.47741935 0 3.20166493 0 3.79105099 2.71515152 4.01581686 2.71515152"></polygon>
                            <polygon id="M" points="5.77898023 3.2969697 5.77898023 0 6.95275754 0 7.55213319 2.40484848 8.15150884 0 9.32528616 0 9.32528616 3.2969697 8.63600416 3.2969697 8.63600416 0.746666667 8.56108221 0.746666667 7.89677419 3.15151515 7.2074922 3.15151515 6.54318418 0.746666667 6.46826223 0.746666667 6.46826223 3.2969697"></polygon>
                        </g>
                    </g>
                </g>
            </g>
        </g>
    </g>
</svg>