<?xml version="1.0" encoding="UTF-8"?>
<svg width="18px" height="11px" viewBox="0 0 18 11" version="1.1" xmlns="http://www.w3.org/2000/svg" xmlns:xlink="http://www.w3.org/1999/xlink">
    <title>形状结合_4</title>
    <g id="页面-1" stroke="none" stroke-width="1" fill="none" fill-rule="evenodd" opacity="0.5004178">
        <g id="assets备份-6" transform="translate(-271.000000, -130.000000)" fill="#FFFFFF" stroke="#FFFFFF" stroke-width="1.06666667">
            <g id="形状结合-4" transform="translate(271.000000, 130.000000)">
                <path d="M12.5555556,0.783333333 C13.8069793,0.783333333 14.9432298,1.27648633 15.780526,2.07909294 C16.6189682,2.88279804 17.1578068,3.99674366 17.2121163,5.23663265 C17.2116266,6.627948 16.732641,7.83662932 15.9412044,8.715686 C15.191567,9.54831588 14.163277,10.0824668 13.0120951,10.1945941 L12.7635891,10.2121167 L5.44444444,10.2166667 C4.1930207,10.2166667 3.05677017,9.72351367 2.21947399,8.92090706 C1.38318722,8.11926804 0.844965569,7.00898151 0.788316534,5.77287529 C0.842233634,4.33428011 1.33170448,3.12563118 2.1129759,2.25687237 C2.85715944,1.42935457 3.86405116,0.915021966 4.98819491,0.805395112 L5.23082453,0.788131472 L12.5555556,0.783333333 Z M5.44483106,1.21666681 C4.29497277,1.21666667 3.25261541,1.6742543 2.48769032,2.46218465 C1.75684782,3.21500738 1.2769286,4.27342975 1.21666667,5.55555556 C1.21666667,6.69721745 1.6684859,7.73319418 2.43123533,8.49594361 C3.17554192,9.2402502 4.21846659,9.72601491 5.43136964,9.78332677 L5.43136964,9.78332677 L8.27990978,9.78477054 L6.80766466,8.80635287 L6.63287611,8.68329608 C5.66218483,7.96014711 5.03333333,6.80355408 5.03333333,5.5 C5.03333333,4.12051611 5.73757767,2.90561233 6.80592224,2.19480576 L6.80592224,2.19480576 L8.27298685,1.21871697 Z M12.5555556,1.21666667 L9.72701315,1.21871697 L11.1940778,2.19480576 L11.3687056,2.31788287 C12.3384981,3.0411096 12.9666667,4.1971541 12.9666667,5.5 C12.9666667,6.88023373 12.2616567,8.09570837 11.1923353,8.80635287 L11.1923353,8.80635287 L9.72009022,9.78477054 L12.5558259,9.78333326 L12.8003858,9.77637576 C13.85252,9.71627825 14.8020221,9.26946496 15.5123097,8.53781535 C16.2431522,7.78499262 16.7230714,6.72657025 16.7833333,5.44444444 C16.7833333,4.27697585 16.3101232,3.2200314 15.5450459,2.45495411 C14.7799686,1.68987681 13.7230242,1.21666667 12.5555556,1.21666667 L12.5555556,1.21666667 Z" id="形状结合"></path>
            </g>
        </g>
    </g>
</svg>