<?xml version="1.0" encoding="UTF-8"?>
<svg width="16px" height="8px" viewBox="0 0 16 8" version="1.1" xmlns="http://www.w3.org/2000/svg" xmlns:xlink="http://www.w3.org/1999/xlink">
    <title>形状结合_3</title>
    <g id="页面-1" stroke="none" stroke-width="1" fill="none" fill-rule="evenodd" opacity="0.504717146">
        <g id="assets备份-6" transform="translate(-251.000000, -132.000000)" fill="#FFFFFF" fill-rule="nonzero">
            <g id="形状结合-3" transform="translate(251.000000, 132.000000)">
                <path d="M15.2,0 C15.6418278,0 16,0.365462816 16,0.816284046 C16,2.30584813 15.3482961,3.64010031 14.3199504,4.53837967 L15.0353393,5.90982393 C15.2014323,6.22844281 15.0829383,6.62412014 14.7706755,6.79359397 C14.4844346,6.94894499 14.134735,6.86029632 13.9505056,6.59902504 L13.9045358,6.52354297 L13.2405981,5.25064738 C12.8166324,5.45412386 12.3587443,5.59616176 11.8779553,5.6655152 L11.8772271,7.34655642 C11.8772271,7.70744334 11.5905066,8 11.236819,8 C10.9103382,8 10.6409181,7.75072095 10.6014007,7.42852299 L10.596411,7.34655642 L10.596,5.713 L8.677,5.713 L8.67722707,7.34655642 C8.67722707,7.70744334 8.39050662,8 8.03681903,8 C7.71033817,8 7.44091808,7.75072095 7.40140067,7.42852299 L7.39641099,7.34655642 L7.396,5.713 L5.477,5.713 L5.47722707,7.34655642 C5.47722707,7.70744334 5.19050662,8 4.83681903,8 C4.51033817,8 4.24091808,7.75072095 4.20140067,7.42852299 L4.19641099,7.34655642 L4.19675051,5.67568156 C3.70966727,5.61336273 3.24528275,5.47657326 2.81489152,5.27683764 L2.16540174,6.52354297 L2.11943193,6.59902504 C1.93520253,6.86029632 1.58550288,6.94894499 1.29926202,6.79359397 C0.986999261,6.62412014 0.86850526,6.22844281 1.03459826,5.90982393 L1.03459826,5.90982393 L1.72807845,4.57978367 C0.672037953,3.68137391 0,2.32890791 0,0.816284046 C0,0.365462816 0.3581722,0 0.8,0 C1.2418278,0 1.6,0.365462816 1.6,0.816284046 C1.6,2.56492397 2.94717478,3.99250965 4.64028773,4.07742427 L4.8,4.08142023 L11.2,4.08142023 C12.9673112,4.08142023 14.4,2.61956897 14.4,0.816284046 C14.4,0.365462816 14.7581722,0 15.2,0 Z" id="形状结合"></path>
            </g>
        </g>
    </g>
</svg>