<?xml version="1.0" encoding="UTF-8"?>
<svg width="24px" height="24px" viewBox="0 0 24 24" version="1.1" xmlns="http://www.w3.org/2000/svg" xmlns:xlink="http://www.w3.org/1999/xlink">
    <title>icon_filter_24</title>
    <g id="icon" stroke="none" stroke-width="1" fill="none" fill-rule="evenodd" stroke-linecap="round" stroke-linejoin="round">
        <g id="icon_filter_24" stroke="#979797" stroke-width="1.5">
            <g id="筛选备份">
                <path d="M5,4 L15,4 C15.5522847,4 16,4.44771525 16,5 L16,6.01091619 C16,6.31950663 15.8575272,6.61081221 15.6139406,6.80026841 L12.2721188,9.39946318 C11.7849457,9.77837558 11.5,10.3609867 11.5,10.9781676 L11.5,19 C11.5,19.5522847 11.0522847,20 10.5,20 L9.5,20 C8.94771525,20 8.5,19.5522847 8.5,19 L8.5,10.9781676 C8.5,10.3609867 8.21505431,9.77837558 7.72788123,9.39946318 L4.38605939,6.80026841 C4.14247284,6.61081221 4,6.31950663 4,6.01091619 L4,5 C4,4.44771525 4.44771525,4 5,4 Z" id="路径-8"></path>
                <line x1="14.5" y1="11.5" x2="20" y2="11.5" id="路径-9"></line>
                <line x1="14.5" y1="14.5" x2="18.5" y2="14.5" id="路径-9备份"></line>
                <line x1="14.5" y1="17.5" x2="19.5" y2="17.5" id="路径-9备份-2"></line>
            </g>
        </g>
    </g>
</svg>