<?xml version="1.0" encoding="UTF-8"?>
<svg width="56px" height="56px" viewBox="0 0 56 56" version="1.1" xmlns="http://www.w3.org/2000/svg" xmlns:xlink="http://www.w3.org/1999/xlink">
    <title>16</title>
    <defs>
        <filter id="filter-1">
            <feColorMatrix in="SourceGraphic" type="matrix" values="0 0 0 0 0.913725 0 0 0 0 0.117647 0 0 0 0 0.388235 0 0 0 1.000000 0"></feColorMatrix>
        </filter>
    </defs>
    <g id="控件" stroke="none" stroke-width="1" fill="none" fill-rule="evenodd">
        <g id="profile-polkadot" transform="translate(-51.000000, -62.000000)" filter="url(#filter-1)">
            <g transform="translate(51.000000, 62.000000)" id="编组-15" fill="#C9CACE">
                <path d="M31.102363,2.84967 L48.6807734,13.1556648 C50.1173925,13.997936 51,15.5385113 51,17.2038327 L51,38.7961673 C51,40.4614887 50.1173925,42.002064 48.6807734,42.8443352 L31.102363,53.15033 C29.18661,54.2735113 26.81339,54.2735113 24.897637,53.15033 L7.31922659,42.8443352 C5.88260745,42.002064 5,40.4614887 5,38.7961673 L5,17.2038327 C5,15.5385113 5.88260745,13.997936 7.31922659,13.1556648 L24.897637,2.84967 C26.81339,1.72648874 29.18661,1.72648874 31.102363,2.84967 Z M24.9210852,36.9935385 C24.5262328,36.3911137 23.725224,36.2277977 23.131982,36.628762 C22.53874,37.0297264 22.3779135,37.843134 22.7727659,38.4455588 C23.9755788,40.2806858 26.165617,41.4122338 28.5553545,41.4122338 C30.9164545,41.4122338 33.0836029,40.307792 34.296049,38.5085929 C34.6985015,37.9113768 34.5479942,37.0959353 33.9598816,36.6872532 C33.3717689,36.2785711 32.5687572,36.4314081 32.1663047,37.0286241 C31.446328,38.0970275 30.0833936,38.7916185 28.5553545,38.7916185 C27.0095629,38.7916185 25.6336665,38.0807209 24.9210852,36.9935385 Z M21.33313,21.5788008 L20.6712427,21.5788008 C20.114218,21.5788008 19.8887474,21.6414175 19.6688897,21.7589987 C19.4490319,21.8765799 19.2764863,22.0491255 19.1589051,22.2689832 C19.0413239,22.4888409 18.9787072,22.7143115 18.9787072,23.2713363 L18.9787072,23.2713363 L18.9787072,26.7356006 C18.9787072,27.2926254 19.0413239,27.518096 19.1589051,27.7379537 C19.2764863,27.9578114 19.4490319,28.130357 19.6688897,28.2479382 C19.8887474,28.3655194 20.114218,28.4281361 20.6712427,28.4281361 L20.6712427,28.4281361 L21.33313,28.4281361 C21.8901548,28.4281361 22.1156254,28.3655194 22.3354831,28.2479382 C22.5553408,28.130357 22.7278864,27.9578114 22.8454676,27.7379537 C22.9630488,27.518096 23.0256656,27.2926254 23.0256656,26.7356006 L23.0256656,26.7356006 L23.0256656,23.2713363 C23.0256656,22.7143115 22.9630488,22.4888409 22.8454676,22.2689832 C22.7278864,22.0491255 22.5553408,21.8765799 22.3354831,21.7589987 C22.1156254,21.6414175 21.8901548,21.5788008 21.33313,21.5788008 L21.33313,21.5788008 Z M36.1719773,21.5788008 L35.5100901,21.5788008 C34.9530653,21.5788008 34.7275947,21.6414175 34.507737,21.7589987 C34.2878793,21.8765799 34.1153337,22.0491255 33.9977525,22.2689832 C33.8801713,22.4888409 33.8175545,22.7143115 33.8175545,23.2713363 L33.8175545,23.2713363 L33.8175545,26.7356006 C33.8175545,27.2926254 33.8801713,27.518096 33.9977525,27.7379537 C34.1153337,27.9578114 34.2878793,28.130357 34.507737,28.2479382 C34.7275947,28.3655194 34.9530653,28.4281361 35.5100901,28.4281361 L35.5100901,28.4281361 L36.1719773,28.4281361 C36.7290021,28.4281361 36.9544727,28.3655194 37.1743304,28.2479382 C37.3941881,28.130357 37.5667337,27.9578114 37.6843149,27.7379537 C37.8018961,27.518096 37.8645129,27.2926254 37.8645129,26.7356006 L37.8645129,26.7356006 L37.8645129,23.2713363 C37.8645129,22.7143115 37.8018961,22.4888409 37.6843149,22.2689832 C37.5667337,22.0491255 37.3941881,21.8765799 37.1743304,21.7589987 C36.9544727,21.6414175 36.7290021,21.5788008 36.1719773,21.5788008 L36.1719773,21.5788008 Z" id="形状结合"></path>
            </g>
        </g>
    </g>
</svg>