<?xml version="1.0" encoding="utf-8"?>
<!-- Generator: Adobe Illustrator 23.0.0, SVG Export Plug-In . SVG Version: 6.00 Build 0)  -->
<svg version="1.1" id="layer_1" xmlns="http://www.w3.org/2000/svg" xmlns:xlink="http://www.w3.org/1999/xlink" x="0px" y="0px"
	 viewBox="0 0 56 56" style="enable-background:new 0 0 56 56;" xml:space="preserve">
<path id="path_group" class="st0" d="M31.1,2.8l17.6,10.3c1.4,0.8,2.3,2.4,2.3,4v21.6c0,1.7-0.9,3.2-2.3,4L31.1,53.2
	c-1.9,1.1-4.3,1.1-6.2,0L7.3,42.8C5.9,42,5,40.5,5,38.8V17.2c0-1.7,0.9-3.2,2.3-4L24.9,2.8C26.8,1.7,29.2,1.7,31.1,2.8z M24.9,37
	c-0.4-0.6-1.2-0.8-1.8-0.4c-0.6,0.4-0.8,1.2-0.4,1.8c1.2,1.8,3.4,3,5.8,3c2.4,0,4.5-1.1,5.7-2.9c0.4-0.6,0.3-1.4-0.3-1.8
	c-0.6-0.4-1.4-0.3-1.8,0.3c-0.7,1.1-2.1,1.8-3.6,1.8C27,38.8,25.6,38.1,24.9,37z M21.3,21.6h-0.7c-0.6,0-0.8,0.1-1,0.2
	c-0.2,0.1-0.4,0.3-0.5,0.5c-0.1,0.2-0.2,0.4-0.2,1l0,0v3.5c0,0.6,0.1,0.8,0.2,1c0.1,0.2,0.3,0.4,0.5,0.5s0.4,0.2,1,0.2l0,0h0.7
	c0.6,0,0.8-0.1,1-0.2s0.4-0.3,0.5-0.5c0.1-0.2,0.2-0.4,0.2-1l0,0v-3.5c0-0.6-0.1-0.8-0.2-1c-0.1-0.2-0.3-0.4-0.5-0.5
	C22.1,21.6,21.9,21.6,21.3,21.6L21.3,21.6z M36.2,21.6h-0.7c-0.6,0-0.8,0.1-1,0.2c-0.2,0.1-0.4,0.3-0.5,0.5c-0.1,0.2-0.2,0.4-0.2,1
	l0,0v3.5c0,0.6,0.1,0.8,0.2,1c0.1,0.2,0.3,0.4,0.5,0.5c0.2,0.1,0.4,0.2,1,0.2l0,0h0.7c0.6,0,0.8-0.1,1-0.2c0.2-0.1,0.4-0.3,0.5-0.5
	c0.1-0.2,0.2-0.4,0.2-1l0,0v-3.5c0-0.6-0.1-0.8-0.2-1c-0.1-0.2-0.3-0.4-0.5-0.5C37,21.6,36.7,21.6,36.2,21.6L36.2,21.6z"/>
</svg>
