<?xml version="1.0" encoding="UTF-8"?>
<svg width="60px" height="60px" viewBox="0 0 60 60" version="1.1" xmlns="http://www.w3.org/2000/svg" xmlns:xlink="http://www.w3.org/1999/xlink">
    <title>12</title>
    <defs>
        <filter id="filter-1">
            <feColorMatrix in="SourceGraphic" type="matrix" values="0 0 0 0 0.913725 0 0 0 0 0.117647 0 0 0 0 0.388235 0 0 0 1.000000 0"></feColorMatrix>
        </filter>
        <rect id="path-2" x="0" y="0" width="60" height="60"></rect>
        <filter id="filter-4">
            <feColorMatrix in="SourceGraphic" type="matrix" values="0 0 0 0 0.156863 0 0 0 0 0.388235 0 0 0 0 1.000000 0 0 0 1.000000 0"></feColorMatrix>
        </filter>
    </defs>
    <g id="控件" stroke="none" stroke-width="1" fill="none" fill-rule="evenodd">
        <g id="12" transform="translate(-798.000000, -130.000000)" filter="url(#filter-1)">
            <g transform="translate(798.000000, 130.000000)">
                <mask id="mask-3" fill="white">
                    <use xlink:href="#path-2"></use>
                </mask>
                <g id="蒙版"></g>
                <g filter="url(#filter-4)" id="编组-15">
                    <g mask="url(#mask-3)">
                        <g transform="translate(3.000000, 3.000000)">
                            <path d="M27.6405808,4.87735027 L45.2478989,15.0429401 C45.866701,15.4002057 46.2478989,16.0604597 46.2478989,16.7749909 L46.2478989,37.1061706 C46.2478989,37.8207018 45.866701,38.4809558 45.2478989,38.8382214 L27.6405808,49.0038113 C27.0217786,49.3610769 26.2593829,49.3610769 25.6405808,49.0038113 L8.03326267,38.8382214 C7.41446051,38.4809558 7.03326267,37.8207018 7.03326267,37.1061706 L7.03326267,16.7749909 C7.03326267,16.0604597 7.41446051,15.4002057 8.03326267,15.0429401 L25.6405808,4.87735027 C26.2593829,4.52008468 27.0217786,4.52008468 27.6405808,4.87735027 Z M24.0158303,34.4906339 C23.6792217,33.9848998 22.9963681,33.8477965 22.4906339,34.184405 C21.9848998,34.5210136 21.8477965,35.2038673 22.184405,35.7096014 C23.2097936,37.2501859 25.0767838,38.2001177 27.1140161,38.2001177 C29.1268352,38.2001177 30.9743121,37.2729415 32.0079127,35.7625183 C32.3510003,35.261157 32.2226941,34.5765958 31.7213327,34.2335082 C31.2199713,33.8904207 30.5354102,34.0187269 30.1923226,34.5200883 C29.5785481,35.4170103 28.4166573,36.0001177 27.1140161,36.0001177 C25.796241,36.0001177 24.6233002,35.4033209 24.0158303,34.4906339 Z M20.9572078,21.55 L20.3927922,21.55 C19.9178991,21.55 19.7257211,21.6033747 19.5383137,21.7036013 C19.3509063,21.8038279 19.2038279,21.9509063 19.1036013,22.1383137 C19.014511,22.3048981 18.9624395,22.4752518 18.9519679,22.8445842 L18.95,22.9927922 L18.95,25.8572078 C18.95,26.3321009 19.0033747,26.5242789 19.1036013,26.7116863 C19.2038279,26.8990937 19.3509063,27.0461721 19.5383137,27.1463987 C19.7048981,27.235489 19.8752518,27.2875605 20.2445842,27.2980321 L20.3927922,27.3 L20.9572078,27.3 C21.4321009,27.3 21.6242789,27.2466253 21.8116863,27.1463987 C21.9990937,27.0461721 22.1461721,26.8990937 22.2463987,26.7116863 C22.335489,26.5451019 22.3875605,26.3747482 22.3980321,26.0054158 L22.4,25.8572078 L22.4,22.9927922 C22.4,22.5178991 22.3466253,22.3257211 22.2463987,22.1383137 C22.1461721,21.9509063 21.9990937,21.8038279 21.8116863,21.7036013 C21.6242789,21.6033747 21.4321009,21.55 20.9572078,21.55 Z M33.6072078,21.55 L33.0427922,21.55 C32.5678991,21.55 32.3757211,21.6033747 32.1883137,21.7036013 C32.0009063,21.8038279 31.8538279,21.9509063 31.7536013,22.1383137 C31.664511,22.3048981 31.6124395,22.4752518 31.6019679,22.8445842 L31.6,22.9927922 L31.6,25.8572078 C31.6,26.3321009 31.6533747,26.5242789 31.7536013,26.7116863 C31.8538279,26.8990937 32.0009063,27.0461721 32.1883137,27.1463987 C32.3548981,27.235489 32.5252518,27.2875605 32.8945842,27.2980321 L33.0427922,27.3 L33.6072078,27.3 C34.0821009,27.3 34.2742789,27.2466253 34.4616863,27.1463987 C34.6490937,27.0461721 34.7961721,26.8990937 34.8963987,26.7116863 C34.985489,26.5451019 35.0375605,26.3747482 35.0480321,26.0054158 L35.05,25.8572078 L35.05,22.9927922 C35.05,22.5178991 34.9966253,22.3257211 34.8963987,22.1383137 C34.7961721,21.9509063 34.6490937,21.8038279 34.4616863,21.7036013 C34.2742789,21.6033747 34.0821009,21.55 33.6072078,21.55 Z" id="形状结合" stroke="none" fill="#C9CACE" fill-rule="evenodd"></path>
                            <path d="M27,-0.726497308 C28.1222233,-0.726497308 29.2444465,-0.436219016 30.25,0.144337567 L30.25,0.144337567 L48.6326859,10.7575862 C49.6382394,11.3381428 50.4507394,12.1648775 51.011851,13.1367513 C51.5729627,14.1086252 51.8826859,15.2256382 51.8826859,16.3867513 L51.8826859,16.3867513 L51.8826859,37.6132487 C51.8826859,39.935475 50.6437929,42.0813006 48.6326859,43.2424138 L48.6326859,43.2424138 L30.25,53.8556624 C29.2444465,54.436219 28.1222233,54.7264973 27,54.7264973 C25.8777767,54.7264973 24.7555535,54.436219 23.75,53.8556624 L23.75,53.8556624 L5.3673141,43.2424138 C3.3562071,42.0813006 2.1173141,39.935475 2.1173141,37.6132487 L2.1173141,37.6132487 L2.1173141,16.3867513 C2.1173141,15.2256382 2.42703735,14.1086252 2.98814897,13.1367513 C3.5492606,12.1648775 4.3617606,11.3381428 5.3673141,10.7575862 L5.3673141,10.7575862 L23.75,0.144337567 C24.7555535,-0.436219016 25.8777767,-0.726497308 27,-0.726497308 Z" id="多边形" stroke="#C9CACE" stroke-width="3" fill="none"></path>
                        </g>
                    </g>
                </g>
            </g>
        </g>
    </g>
</svg>