<?xml version="1.0" encoding="UTF-8"?>
<svg width="56px" height="56px" viewBox="0 0 56 56" version="1.1" xmlns="http://www.w3.org/2000/svg" xmlns:xlink="http://www.w3.org/1999/xlink">
    <title>17</title>
    <defs>
        <filter id="filter-1">
            <feColorMatrix in="SourceGraphic" type="matrix" values="0 0 0 0 0.913725 0 0 0 0 0.117647 0 0 0 0 0.388235 0 0 0 1.000000 0"></feColorMatrix>
        </filter>
        <filter id="filter-2">
            <feColorMatrix in="SourceGraphic" type="matrix" values="0 0 0 0 0.247059 0 0 0 0 0.317647 0 0 0 0 0.709804 0 0 0 1.000000 0"></feColorMatrix>
        </filter>
        <rect id="path-3" x="0" y="0" width="56" height="56"></rect>
        <rect id="path-5" x="0" y="0" width="46" height="52"></rect>
    </defs>
    <g id="控件" stroke="none" stroke-width="1" fill="none" fill-rule="evenodd">
        <g id="asset-polkadot" transform="translate(-51.000000, -136.000000)" filter="url(#filter-1)">
            <g transform="translate(51.000000, 136.000000)" filter="url(#filter-2)" id="编组-20">
                <g>
                    <mask id="mask-4" fill="white">
                        <use xlink:href="#path-3"></use>
                    </mask>
                    <g id="蒙版"></g>
                    <g id="编组-12" mask="url(#mask-4)">
                        <g transform="translate(5.000000, 2.000000)">
                            <mask id="mask-6" fill="white">
                                <use xlink:href="#path-5"></use>
                            </mask>
                            <g id="蒙版" stroke="none" fill="none"></g>
                            <g id="编组-12" stroke="none" stroke-width="1" fill="none" fill-rule="evenodd" mask="url(#mask-6)">
                                <g transform="translate(0.000000, -8.163019)" fill="#0041DC" id="矩形">
                                    <path d="M3.41005857,24.622993 L18.5420266,33.6111291 C19.7664738,34.3384303 20.163335,34.6676002 20.548104,35.1014693 C20.9328731,35.5353385 21.205595,36.0145354 21.3821247,36.5669183 C21.5586544,37.1193013 21.6389919,37.6286121 21.6389919,39.0527744 L21.6389919,57.0506575 C21.6389919,58.2973243 20.6283687,59.3079474 19.381702,59.3079474 C18.9759806,59.3079474 18.577759,59.1985968 18.2289333,58.9914001 L3.09696529,50.003264 C1.87251805,49.2759628 1.47565683,48.9467929 1.09088781,48.5129238 C0.706118784,48.0790546 0.433396832,47.5998577 0.256867136,47.0474748 C0.0803374401,46.4950918 5.4078413e-15,45.985781 7.61564266e-15,44.5616187 L6.01462848e-15,26.5637356 C6.30604504e-15,25.3170688 1.0106231,24.3064457 2.25728988,24.3064457 C2.66301122,24.3064457 3.06123288,24.4157963 3.41005857,24.622993 Z"></path>
                                    <path d="M27.3216768,24.4231157 L42.8903288,33.6147453 C44.1191129,34.3402113 44.5175727,34.669308 44.9039619,35.1034543 C45.290351,35.5376007 45.5643606,36.0175751 45.7417728,36.571023 C45.919185,37.1244708 46,37.6349057 46,39.0618646 L46,57.0201114 C46,58.2667782 44.9893769,59.2774013 43.7427101,59.2774013 C43.3319443,59.2774013 42.9289644,59.1653163 42.5771903,58.9532232 L26.9823324,49.5507061 C25.7686281,48.8189344 25.3757201,48.4896042 24.9949553,48.0564409 C24.6141905,47.6232776 24.3446468,47.1460177 24.1702943,46.5962782 C23.9959418,46.0465387 23.9167805,45.5400127 23.9167805,44.1227732 L23.9167805,26.3669153 C23.9167805,25.1202485 24.9274036,24.1096254 26.1740703,24.1096254 C26.5777557,24.1096254 26.9740549,24.217882 27.3216768,24.4231157 Z" transform="translate(34.958390, 41.714903) scale(-1, 1) translate(-34.958390, -41.714903) "></path>
                                    <path d="M15.495816,3.07523824 L31.4326263,12.6326771 C32.6581055,13.3676072 33.0548049,13.7001437 33.4385253,14.1378709 C33.8222457,14.575598 34.0929481,15.0585215 34.2661203,15.6142713 C34.4392925,16.170021 34.5159586,16.6819519 34.5034144,18.110855 L34.3487244,35.7314488 C34.3377804,36.9780675 33.3183244,37.9797798 32.0717056,37.9688358 C31.6694907,37.9653048 31.2755247,37.8543639 30.9305705,37.647492 L14.9937602,28.0900532 C13.768281,27.355123 13.3715817,27.0225865 12.9878612,26.5848594 C12.6041408,26.1471322 12.3334385,25.6642087 12.1602662,25.108459 C11.987094,24.5527092 11.9104279,24.0407784 11.9229721,22.6118753 L12.0776621,4.99128152 C12.0886061,3.74466278 13.1080621,2.74295047 14.3546809,2.75389445 C14.7568958,2.75742547 15.1508618,2.86836634 15.495816,3.07523824 Z" transform="translate(23.213193, 20.361365) rotate(-60.000000) translate(-23.213193, -20.361365) "></path>
                                </g>
                            </g>
                        </g>
                    </g>
                </g>
            </g>
        </g>
    </g>
</svg>