<?xml version="1.0" encoding="utf-8"?>
<!-- Generator: Adobe Illustrator 23.0.0, SVG Export Plug-In . SVG Version: 6.00 Build 0)  -->
<svg version="1.1" id="_x3C_assets_x3E_" xmlns="http://www.w3.org/2000/svg" xmlns:xlink="http://www.w3.org/1999/xlink" x="0px"
	 y="0px" viewBox="0 0 56 56" style="enable-background:new 0 0 56 56;" xml:space="preserve">
<path class="st0" d="M8.4,18.5l15.1,9c1.2,0.7,1.6,1.1,2,1.5c0.4,0.4,0.7,0.9,0.8,1.5c0.2,0.6,0.3,1.1,0.3,2.5v18
	c0,1.2-1,2.3-2.3,2.3c-0.4,0-0.8-0.1-1.2-0.3l-15.1-9c-1.2-0.7-1.6-1.1-2-1.5c-0.4-0.4-0.7-0.9-0.8-1.5C5.1,40.3,5,39.8,5,38.4v-18
	c0-1.2,1-2.3,2.3-2.3C7.7,18.1,8.1,18.3,8.4,18.5z"/>
<path class="st0" d="M47.6,18.3L32,27.5c-1.2,0.7-1.6,1.1-2,1.5c-0.4,0.4-0.7,0.9-0.8,1.5c-0.2,0.6-0.3,1.1-0.3,2.5v18
	c0,1.2,1,2.3,2.3,2.3c0.4,0,0.8-0.1,1.2-0.3l15.6-9.4c1.2-0.7,1.6-1.1,2-1.5c0.4-0.4,0.7-0.9,0.8-1.5c0.2-0.5,0.3-1.1,0.3-2.5V20.2
	c0-1.2-1-2.3-2.3-2.3C48.3,17.9,47.9,18.1,47.6,18.3z"/>
<path class="st0" d="M9.4,12.2l16.2-9c1.2-0.7,1.7-0.9,2.3-1c0.6-0.1,1.1-0.1,1.7,0c0.6,0.1,1,0.3,2.3,1l15.2,8.9
	c1.1,0.6,1.4,2,0.8,3.1c-0.2,0.3-0.5,0.6-0.8,0.8l-16.2,9c-1.2,0.7-1.7,0.9-2.3,1c-0.6,0.1-1.1,0.1-1.7,0c-0.6-0.1-1-0.3-2.3-1
	L9.3,16.2c-1.1-0.6-1.4-2-0.8-3.1C8.7,12.7,9,12.4,9.4,12.2z"/>
</svg>
