<?xml version="1.0" encoding="UTF-8"?>
<svg width="60px" height="60px" viewBox="0 0 60 60" version="1.1" xmlns="http://www.w3.org/2000/svg" xmlns:xlink="http://www.w3.org/1999/xlink">
    <title>15</title>
    <defs>
        <filter id="filter-1">
            <feColorMatrix in="SourceGraphic" type="matrix" values="0 0 0 0 0.913725 0 0 0 0 0.117647 0 0 0 0 0.388235 0 0 0 1.000000 0"></feColorMatrix>
        </filter>
        <rect id="path-2" x="0" y="0" width="60" height="60"></rect>
        <filter id="filter-4">
            <feColorMatrix in="SourceGraphic" type="matrix" values="0 0 0 0 0.788235 0 0 0 0 0.792157 0 0 0 0 0.807843 0 0 0 1.000000 0"></feColorMatrix>
        </filter>
    </defs>
    <g id="控件" stroke="none" stroke-width="1" fill="none" fill-rule="evenodd">
        <g id="15" transform="translate(-558.000000, -130.000000)" filter="url(#filter-1)">
            <g transform="translate(558.000000, 130.000000)">
                <mask id="mask-3" fill="white">
                    <use xlink:href="#path-2"></use>
                </mask>
                <g id="蒙版"></g>
                <g filter="url(#filter-4)" id="编组-20">
                    <g mask="url(#mask-3)">
                        <g transform="translate(3.000000, 0.000000)">
                            <g id="编组-12" stroke="none" stroke-width="1" fill-rule="evenodd" transform="translate(6.300000, 0.000000)">
                                <path d="M1.50308921,20.496912 L16.3911944,29.1635936 C17.4888191,29.8025443 17.8451476,30.0939626 18.1908272,30.4791779 C18.5365067,30.8643932 18.7819353,31.2912461 18.9409439,31.783792 C19.0999526,32.2763378 19.1725414,32.7308986 19.1725414,34.0009529 L19.1725414,51.2432449 C19.1725414,51.7955297 18.7248262,52.2432449 18.1725414,52.2432449 C17.9957937,52.2432449 17.8222037,52.1963993 17.6694522,52.1074794 L2.78134704,43.4407978 C1.68372231,42.8018472 1.32739379,42.5104288 0.981714246,42.1252135 C0.636034699,41.7399983 0.390606137,41.3131453 0.231597462,40.8205995 C0.0725887878,40.3280537 6.03017715e-15,39.8734928 3.49809686e-15,38.6034385 L5.32907052e-15,21.3611465 C5.26143514e-15,20.8088618 0.44771525,20.3611465 1,20.3611465 C1.1767477,20.3611465 1.35033775,20.4079922 1.50308921,20.496912 Z" id="矩形" fill="#0041DC"></path>
                                <path d="M22.6897747,20.2374236 L38.1989107,29.1694673 C39.3032462,29.8054779 39.6620575,30.0967546 40.010256,30.4823733 C40.3584545,30.867992 40.6058905,31.2960336 40.7662769,31.7902201 C40.9266633,32.2844065 41,32.7407061 41,34.0150947 L41,51.2525513 C41,51.804836 40.5522847,52.2525513 40,52.2525513 C39.824827,52.2525513 39.6527271,52.2065361 39.5009289,52.1191123 L23.991793,43.1870686 C22.8874574,42.5510581 22.5286462,42.2597814 22.1804477,41.8741627 C21.8322491,41.4885439 21.5848131,41.0605024 21.4244268,40.5663159 C21.2640404,40.0721295 21.1907037,39.6158299 21.1907037,38.3414412 L21.1907037,21.1039847 C21.1907037,20.5516999 21.6384189,20.1039847 22.1907037,20.1039847 C22.3658767,20.1039847 22.5379766,20.1499998 22.6897747,20.2374236 Z" id="矩形" fill="#0041DC" transform="translate(31.095352, 36.178268) scale(-1, 1) translate(-31.095352, -36.178268) "></path>
                                <path d="M12.252639,1.49721261 L27.7134034,10.9491195 C28.7798679,11.6011004 29.1247242,11.8930015 29.4587818,12.2761855 C29.7928393,12.6593694 30.0290397,13.0806132 30.1817257,13.565496 C30.3344117,14.0503789 30.4035833,14.4968623 30.4035833,15.7468325 L30.4035833,33.010123 C30.4035833,33.5624078 29.955868,34.010123 29.4035833,34.010123 C29.2195199,34.010123 29.0390275,33.9593218 28.8819861,33.8633149 L13.4212217,24.4114081 C12.3547572,23.7594272 12.0099009,23.467526 11.6758434,23.0843421 C11.3417859,22.7011581 11.1055855,22.2799143 10.9528995,21.7950315 C10.8002135,21.3101487 10.7310419,20.8636653 10.7310419,19.613695 L10.7310419,2.35040452 C10.7310419,1.79811977 11.1787571,1.35040452 11.7310419,1.35040452 C11.9151052,1.35040452 12.0955977,1.40120571 12.252639,1.49721261 Z" id="矩形" fill="#0041DC" transform="translate(20.567313, 17.680264) rotate(-60.000000) translate(-20.567313, -17.680264) "></path>
                            </g>
                            <path d="M27,2.27350269 C28.1222233,2.27350269 29.2444465,2.56378098 30.25,3.14433757 L30.25,3.14433757 L48.6326859,13.7575862 C49.6382394,14.3381428 50.4507394,15.1648775 51.011851,16.1367513 C51.5729627,17.1086252 51.8826859,18.2256382 51.8826859,19.3867513 L51.8826859,19.3867513 L51.8826859,40.6132487 C51.8826859,42.935475 50.6437929,45.0813006 48.6326859,46.2424138 L48.6326859,46.2424138 L30.25,56.8556624 C29.2444465,57.436219 28.1222233,57.7264973 27,57.7264973 C25.8777767,57.7264973 24.7555535,57.436219 23.75,56.8556624 L23.75,56.8556624 L5.3673141,46.2424138 C3.3562071,45.0813006 2.1173141,42.935475 2.1173141,40.6132487 L2.1173141,40.6132487 L2.1173141,19.3867513 C2.1173141,18.2256382 2.42703735,17.1086252 2.98814897,16.1367513 C3.5492606,15.1648775 4.3617606,14.3381428 5.3673141,13.7575862 L5.3673141,13.7575862 L23.75,3.14433757 C24.7555535,2.56378098 25.8777767,2.27350269 27,2.27350269 Z" id="多边形" stroke="#0041DC" stroke-width="3"></path>
                        </g>
                    </g>
                </g>
            </g>
        </g>
    </g>
</svg>