<?xml version="1.0" encoding="UTF-8"?>
<svg width="56px" height="56px" viewBox="0 0 56 56" version="1.1" xmlns="http://www.w3.org/2000/svg" xmlns:xlink="http://www.w3.org/1999/xlink">
    <defs>
        <rect id="path-1" x="0" y="0" width="56" height="56"></rect>
        <filter id="filter-3">
            <feColorMatrix in="SourceGraphic" type="matrix" values="0 0 0 0 0.247059 0 0 0 0 0.317647 0 0 0 0 0.709804 0 0 0 1.000000 0"></feColorMatrix>
        </filter>
    </defs>
    <g id="页面-1" stroke="none" stroke-width="1" fill="none" fill-rule="evenodd">
        <g id="首页" transform="translate(-97.000000, -535.000000)">
            <g id="QR-Code--" transform="translate(97.000000, 535.000000)">
                <mask id="mask-2" fill="white">
                    <use xlink:href="#path-1"></use>
                </mask>
                <g filter="url(#filter-3)" id="编组-2">
                    <g mask="url(#mask-2)">
                        <g transform="translate(7.000000, 7.000000)" fill="#2863FF">
                            <path d="M11.4176841,23.6888889 C13.3452468,23.6888889 14.3721821,23.8871992 15.4423437,24.4595279 C16.4427325,24.9945417 17.2398018,25.791611 17.7748155,26.7919998 C18.3471442,27.8621613 18.5454545,28.8890966 18.5454545,30.8166593 L18.5454545,30.8166593 L18.5454545,35.1388963 C18.5454545,37.0664589 18.3471442,38.0933943 17.7748155,39.1635558 C17.2398018,40.1639446 16.4427325,40.9610139 15.4423437,41.4960277 C14.3721821,42.0683563 13.3452468,42.2666667 11.4176841,42.2666667 L11.4176841,42.2666667 L7.1277704,42.2666667 C5.20020773,42.2666667 4.17327241,42.0683563 3.10311087,41.4960277 C2.10272208,40.9610139 1.3056528,40.1639446 0.770639012,39.1635558 C0.198310358,38.0933943 -5.02708986e-13,37.0664589 -5.02708986e-13,35.1388963 L-5.02708986e-13,35.1388963 L-5.02708986e-13,30.8166593 C-5.02708986e-13,28.8890966 0.198310358,27.8621613 0.770639012,26.7919998 C1.3056528,25.791611 2.10272208,24.9945417 3.10311087,24.4595279 C4.17327241,23.8871992 5.20020773,23.6888889 7.1277704,23.6888889 L7.1277704,23.6888889 Z M11.6553171,27.6898168 L6.8901374,27.6898168 L6.47415795,27.6975232 L6.12815544,27.7136587 L5.84124378,27.7389776 C5.53674966,27.7741667 5.33067351,27.8296451 5.14522493,27.9108026 L5.14522493,27.9108026 L4.98950631,27.9867807 C4.68619141,28.1489953 4.46010639,28.3750803 4.2978918,28.6783952 L4.2978918,28.6783952 L4.22191375,28.8341138 C4.11756835,29.0725477 4.05567207,29.3450802 4.0247698,29.8170443 L4.0247698,29.8170443 L4.00863429,30.1630468 L4.00092794,30.5790263 L4.00092794,35.3765293 L4.00863429,35.7925087 L4.0247698,36.1385112 C4.05567207,36.6104753 4.11756835,36.8830079 4.22191375,37.1214417 L4.22191375,37.1214417 L4.2978918,37.2771604 C4.46010639,37.5804753 4.68619141,37.8065603 4.98950631,37.9687749 C5.24666577,38.1063052 5.5005635,38.1882866 5.97799364,38.2304325 L5.97799364,38.2304325 L6.29308996,38.2510654 C6.35068145,38.2537494 6.41096184,38.2560665 6.47415795,38.2580324 L6.47415795,38.2580324 L6.8901374,38.2657387 L11.6553171,38.2657387 L12.0712966,38.2580324 C12.1344927,38.2560665 12.1947731,38.2537494 12.2523646,38.2510654 L12.2523646,38.2510654 L12.5674609,38.2304325 C13.044891,38.1882866 13.2987888,38.1063052 13.5559482,37.9687749 C13.8592631,37.8065603 14.0853482,37.5804753 14.2475627,37.2771604 C14.3988462,36.994285 14.4829153,36.7153562 14.5206847,36.1385112 L14.5206847,36.1385112 L14.5368203,35.7925087 L14.5445266,35.3765293 L14.5454545,30.8166593 L14.5416799,30.3616091 L14.5298533,29.9819788 L14.5092203,29.6668825 C14.4670745,29.1894524 14.3850931,28.9355547 14.2475627,28.6783952 C14.0853482,28.3750803 13.8592631,28.1489953 13.5559482,27.9867807 L13.5559482,27.9867807 L13.4002296,27.9108026 C13.214781,27.8296451 13.0087049,27.7741667 12.7042108,27.7389776 L12.7042108,27.7389776 L12.4172991,27.7136587 L12.0712966,27.6975232 L11.6553171,27.6898168 Z M11.4176841,-2.25597319e-13 C13.3452468,-2.25597319e-13 14.3721821,0.198310358 15.4423437,0.770639012 C16.4427325,1.3056528 17.2398018,2.10272208 17.7748155,3.10311087 C18.3471442,4.17327241 18.5454545,5.20020773 18.5454545,7.1277704 L18.5454545,7.1277704 L18.5454545,11.4500074 C18.5454545,13.37757 18.3471442,14.4045054 17.7748155,15.4746669 C17.2398018,16.4750557 16.4427325,17.272125 15.4423437,17.8071388 C14.3721821,18.3794674 13.3452468,18.5777778 11.4176841,18.5777778 L11.4176841,18.5777778 L7.1277704,18.5777778 C5.20020773,18.5777778 4.17327241,18.3794674 3.10311087,17.8071388 C2.10272208,17.272125 1.3056528,16.4750557 0.770639012,15.4746669 C0.198310358,14.4045054 -5.02708986e-13,13.37757 -5.02708986e-13,11.4500074 L-5.02708986e-13,11.4500074 L-5.02708986e-13,7.1277704 C-5.02708986e-13,5.20020773 0.198310358,4.17327241 0.770639012,3.10311087 C1.3056528,2.10272208 2.10272208,1.3056528 3.10311087,0.770639012 C4.17327241,0.198310358 5.20020773,-2.25597319e-13 7.1277704,-2.25597319e-13 L7.1277704,-2.25597319e-13 Z M35.0540478,-2.25597319e-13 C36.9816105,-2.25597319e-13 38.0085458,0.198310358 39.0787073,0.770639012 C40.0790961,1.3056528 40.8761654,2.10272208 41.4111792,3.10311087 C41.9835078,4.17327241 42.1818182,5.20020773 42.1818182,7.1277704 L42.1818182,7.1277704 L42.1818182,11.4500074 C42.1818182,13.37757 41.9835078,14.4045054 41.4111792,15.4746669 C40.8761654,16.4750557 40.0790961,17.272125 39.0787073,17.8071388 C38.0085458,18.3794674 36.9816105,18.5777778 35.0540478,18.5777778 L35.0540478,18.5777778 L30.764134,18.5777778 C28.8365714,18.5777778 27.809636,18.3794674 26.7394745,17.8071388 C25.7390857,17.272125 24.9420164,16.4750557 24.4070026,15.4746669 C23.834674,14.4045054 23.6363636,13.37757 23.6363636,11.4500074 L23.6363636,11.4500074 L23.6363636,7.1277704 C23.6363636,5.20020773 23.834674,4.17327241 24.4070026,3.10311087 C24.9420164,2.10272208 25.7390857,1.3056528 26.7394745,0.770639012 C27.809636,0.198310358 28.8365714,-2.25597319e-13 30.764134,-2.25597319e-13 L30.764134,-2.25597319e-13 Z M11.6553171,4.00092794 L6.8901374,4.00092794 L6.47415795,4.00863429 L6.12815544,4.0247698 C5.65619135,4.05567207 5.38365881,4.11756835 5.14522493,4.22191375 L5.14522493,4.22191375 L4.98950631,4.2978918 C4.68619141,4.46010639 4.46010639,4.68619141 4.2978918,4.98950631 L4.2978918,4.98950631 L4.22191375,5.14522493 C4.11756835,5.38365881 4.05567207,5.65619135 4.0247698,6.12815544 L4.0247698,6.12815544 L4.00863429,6.47415795 L4.00092794,6.8901374 L4.00092794,11.6876404 L4.00863429,12.1036198 L4.0247698,12.4496223 C4.05567207,12.9215864 4.11756835,13.194119 4.22191375,13.4325528 L4.22191375,13.4325528 L4.2978918,13.5882715 C4.46010639,13.8915864 4.68619141,14.1176714 4.98950631,14.279886 C5.01522226,14.293639 5.04090559,14.3068366 5.06678309,14.3194943 L5.06678309,14.3194943 L5.2261926,14.3890894 C5.47424511,14.484143 5.77476659,14.5380204 6.29308996,14.5621765 L6.29308996,14.5621765 L6.67272017,14.5740032 C6.8112288,14.5765615 6.96230742,14.5777778 7.1277704,14.5777778 L11.4176841,14.5777778 L11.8727344,14.5740032 C11.9419887,14.572724 12.0081005,14.5711094 12.0712966,14.5691435 L12.0712966,14.5691435 L12.4172991,14.553008 C12.9941441,14.5152385 13.2730728,14.4311694 13.5559482,14.279886 C13.8592631,14.1176714 14.0853482,13.8915864 14.2475627,13.5882715 C14.3988462,13.3053961 14.4829153,13.0264673 14.5206847,12.4496223 L14.5206847,12.4496223 L14.5368203,12.1036198 L14.5445266,11.6876404 L14.5445266,6.8901374 L14.5368203,6.47415795 L14.5206847,6.12815544 C14.4829153,5.55131043 14.3988462,5.27238172 14.2475627,4.98950631 C14.0853482,4.68619141 13.8592631,4.46010639 13.5559482,4.2978918 L13.5559482,4.2978918 L13.4002296,4.22191375 C13.1617957,4.11756835 12.8892632,4.05567207 12.4172991,4.0247698 L12.4172991,4.0247698 L12.0712966,4.00863429 L11.6553171,4.00092794 Z M35.2916808,4.00092794 L30.526501,4.00092794 L30.1105216,4.00863429 L29.7645191,4.0247698 C29.292555,4.05567207 29.0200224,4.11756835 28.7815886,4.22191375 L28.7815886,4.22191375 L28.6258699,4.2978918 C28.322555,4.46010639 28.09647,4.68619141 27.9342554,4.98950631 C27.7967251,5.24666577 27.7147437,5.5005635 27.6725978,5.97799364 L27.6725978,5.97799364 L27.6519649,6.29308996 C27.6492809,6.35068145 27.6469638,6.41096184 27.6449979,6.47415795 L27.6449979,6.47415795 L27.6372916,6.8901374 L27.6372916,11.6876404 L27.6449979,12.1036198 C27.6469638,12.1668159 27.6492809,12.2270963 27.6519649,12.2846878 L27.6519649,12.2846878 L27.6725978,12.5997841 C27.7147437,13.0772143 27.7967251,13.331112 27.9342554,13.5882715 C28.09647,13.8915864 28.322555,14.1176714 28.6258699,14.279886 C28.9344613,14.4449224 29.2383558,14.5299683 29.9294536,14.5621765 L29.9294536,14.5621765 L30.3090838,14.5740032 C30.4475924,14.5765615 30.5986711,14.5777778 30.764134,14.5777778 L35.0540478,14.5777778 L35.509098,14.5740032 C35.5783523,14.572724 35.6444641,14.5711094 35.7076602,14.5691435 L35.7076602,14.5691435 L36.0536627,14.553008 C36.4731864,14.5255393 36.7351345,14.4735815 36.9556256,14.3890894 L36.9556256,14.3890894 L37.1150351,14.3194943 L37.1923119,14.279886 C37.4956268,14.1176714 37.7217118,13.8915864 37.8839264,13.5882715 C38.0489628,13.2796801 38.1340087,12.9757856 38.1662169,12.2846878 L38.1662169,12.2846878 L38.1780436,11.9050576 C38.1806019,11.766549 38.1818182,11.6154704 38.1818182,11.4500074 L38.1818182,7.1277704 L38.1780436,6.67272017 C38.1767644,6.60346586 38.1751498,6.53735405 38.1731839,6.47415795 L38.1731839,6.47415795 L38.1570484,6.12815544 C38.1295797,5.7086318 38.0776219,5.44668372 37.9931298,5.2261926 L37.9931298,5.2261926 L37.9235347,5.06678309 L37.8839264,4.98950631 C37.7217118,4.68619141 37.4956268,4.46010639 37.1923119,4.2978918 L37.1923119,4.2978918 L37.0365932,4.22191375 C36.7981594,4.11756835 36.5256268,4.05567207 36.0536627,4.0247698 L36.0536627,4.0247698 L35.7076602,4.00863429 L35.2916808,4.00092794 Z" id="形状结合" fill-rule="nonzero"></path>
                            <path d="M27.6363636,23.9555556 C28.7409331,23.9555556 29.6363636,24.8509861 29.6363636,25.9555556 L29.6363636,40.9555556 C29.6363636,42.0601251 28.7409331,42.9555556 27.6363636,42.9555556 C26.5317941,42.9555556 25.6363636,42.0601251 25.6363636,40.9555556 L25.6363636,25.9555556 C25.6363636,24.8509861 26.5317941,23.9555556 27.6363636,23.9555556 Z" id="矩形" fill-rule="evenodd"></path>
                            <path d="M38.5454545,23.9555556 C39.650024,23.9555556 40.5454545,24.8509861 40.5454545,25.9555556 L40.5454545,40.9555556 C40.5454545,42.0601251 39.650024,42.9555556 38.5454545,42.9555556 C37.440885,42.9555556 36.5454545,42.0601251 36.5454545,40.9555556 L36.5454545,25.9555556 C36.5454545,24.8509861 37.440885,23.9555556 38.5454545,23.9555556 Z" id="矩形备份-12" fill-rule="evenodd"></path>
                        </g>
                    </g>
                </g>
            </g>
        </g>
    </g>
</svg>