<?xml version="1.0" encoding="UTF-8"?>
<svg width="36px" height="36px" viewBox="0 0 36 36" version="1.1" xmlns="http://www.w3.org/2000/svg" xmlns:xlink="http://www.w3.org/1999/xlink">
    <title>receive</title>
    <defs>
        <path d="M14.3636364,19.0909091 C15.7694521,19.0909091 16.9090909,20.2305479 16.9090909,21.6363636 L16.9090909,21.6363636 L16.9090909,27.4545455 C16.9090909,28.8603612 15.7694521,30 14.3636364,30 L14.3636364,30 L8.54545455,30 C7.13963882,30 6,28.8603612 6,27.4545455 L6,27.4545455 L6,21.6363636 C6,20.2305479 7.13963882,19.0909091 8.54545455,19.0909091 L8.54545455,19.0909091 Z M20.1818182,21.2727273 C20.7341029,21.2727273 21.1905323,21.6831329 21.2627686,22.2156065 L21.2727273,22.3636364 L21.2727273,28.9090909 C21.2727273,29.5115834 20.7843106,30 20.1818182,30 C19.6295334,30 19.1731041,29.5895944 19.1008678,29.0571208 L19.0909091,28.9090909 L19.0909091,22.3636364 C19.0909091,21.7611439 19.5793257,21.2727273 20.1818182,21.2727273 Z M24.5454545,21.2727273 C25.0977393,21.2727273 25.5541687,21.6831329 25.6264049,22.2156065 L25.6363636,22.3636364 L25.6363636,28.9090909 C25.6363636,29.5115834 25.147947,30 24.5454545,30 C23.9931698,30 23.5367404,29.5895944 23.4645042,29.0571208 L23.4545455,28.9090909 L23.4545455,22.3636364 C23.4545455,21.7611439 23.9429621,21.2727273 24.5454545,21.2727273 Z M28.9090909,19.0909091 C29.4613757,19.0909091 29.917805,19.5013147 29.9900413,20.0337883 L30,20.1818182 L30,28.9090909 C30,29.5115834 29.5115834,30 28.9090909,30 C28.3568062,30 27.9003768,29.5895944 27.8281405,29.0571208 L27.8181818,28.9090909 L27.8181818,20.1818182 C27.8181818,19.5793257 28.3065985,19.0909091 28.9090909,19.0909091 Z M14.3636364,21.2727273 L8.54545455,21.2727273 C8.34462373,21.2727273 8.18181818,21.4355328 8.18181818,21.6363636 L8.18181818,21.6363636 L8.18181818,27.4545455 C8.18181818,27.6553763 8.34462373,27.8181818 8.54545455,27.8181818 L8.54545455,27.8181818 L14.3636364,27.8181818 C14.5644672,27.8181818 14.7272727,27.6553763 14.7272727,27.4545455 L14.7272727,27.4545455 L14.7272727,21.6363636 C14.7272727,21.4355328 14.5644672,21.2727273 14.3636364,21.2727273 L14.3636364,21.2727273 Z M14.3636364,6 C15.7694521,6 16.9090909,7.13963882 16.9090909,8.54545455 L16.9090909,8.54545455 L16.9090909,14.3636364 C16.9090909,15.7694521 15.7694521,16.9090909 14.3636364,16.9090909 L14.3636364,16.9090909 L8.54545455,16.9090909 C7.13963882,16.9090909 6,15.7694521 6,14.3636364 L6,14.3636364 L6,8.54545455 C6,7.13963882 7.13963882,6 8.54545455,6 L8.54545455,6 Z M27.4545455,6 C28.8603612,6 30,7.13963882 30,8.54545455 L30,8.54545455 L30,14.3636364 C30,15.7694521 28.8603612,16.9090909 27.4545455,16.9090909 L27.4545455,16.9090909 L21.6363636,16.9090909 C20.2305479,16.9090909 19.0909091,15.7694521 19.0909091,14.3636364 L19.0909091,14.3636364 L19.0909091,8.54545455 C19.0909091,7.13963882 20.2305479,6 21.6363636,6 L21.6363636,6 Z M14.3636364,8.18181818 L8.54545455,8.18181818 C8.34462373,8.18181818 8.18181818,8.34462373 8.18181818,8.54545455 L8.18181818,8.54545455 L8.18181818,14.3636364 C8.18181818,14.5644672 8.34462373,14.7272727 8.54545455,14.7272727 L8.54545455,14.7272727 L14.3636364,14.7272727 C14.5644672,14.7272727 14.7272727,14.5644672 14.7272727,14.3636364 L14.7272727,14.3636364 L14.7272727,8.54545455 C14.7272727,8.34462373 14.5644672,8.18181818 14.3636364,8.18181818 L14.3636364,8.18181818 Z M27.4545455,8.18181818 L21.6363636,8.18181818 C21.4355328,8.18181818 21.2727273,8.34462373 21.2727273,8.54545455 L21.2727273,8.54545455 L21.2727273,14.3636364 C21.2727273,14.5644672 21.4355328,14.7272727 21.6363636,14.7272727 L21.6363636,14.7272727 L27.4545455,14.7272727 C27.6553763,14.7272727 27.8181818,14.5644672 27.8181818,14.3636364 L27.8181818,14.3636364 L27.8181818,8.54545455 C27.8181818,8.34462373 27.6553763,8.18181818 27.4545455,8.18181818 L27.4545455,8.18181818 Z" id="path-1"></path>
        <filter x="-2.1%" y="-2.1%" width="104.2%" height="104.2%" filterUnits="objectBoundingBox" id="filter-2">
            <feGaussianBlur stdDeviation="0.5" in="SourceAlpha" result="shadowBlurInner1"></feGaussianBlur>
            <feOffset dx="0" dy="0" in="shadowBlurInner1" result="shadowOffsetInner1"></feOffset>
            <feComposite in="shadowOffsetInner1" in2="SourceAlpha" operator="arithmetic" k2="-1" k3="1" result="shadowInnerInner1"></feComposite>
            <feColorMatrix values="0 0 0 0 0   0 0 0 0 0   0 0 0 0 0  0 0 0 0.5 0" type="matrix" in="shadowInnerInner1"></feColorMatrix>
        </filter>
    </defs>
    <g id="icon" stroke="none" stroke-width="1" fill="none" fill-rule="evenodd" opacity="1">
        <g id="icon_receive_36" fill-rule="nonzero">
            <g id="形状结合">
                <use fill="#979797" xlink:href="#path-1"></use>
                <use fill="black" fill-opacity="1" filter="url(#filter-2)" xlink:href="#path-1"></use>
            </g>
        </g>
    </g>
</svg>