<?xml version="1.0" standalone="no"?><!DOCTYPE svg PUBLIC "-//W3C//DTD SVG 1.1//EN" "http://www.w3.org/Graphics/SVG/1.1/DTD/svg11.dtd"><svg t="1605252941922" class="icon" viewBox="0 0 1057 1024" version="1.1" xmlns="http://www.w3.org/2000/svg" p-id="1162" xmlns:xlink="http://www.w3.org/1999/xlink" width="206.4453125" height="200"><path d="M293.623742 0c16.218839 0 29.365677 13.09729 29.365677 29.250065 0 16.16929-13.146839 29.266581-29.365677 29.26658H88.080516c-16.218839 0-29.349161 13.09729-29.349161 29.250065v204.8c0 16.16929-13.146839 29.266581-29.365678 29.26658A29.316129 29.316129 0 0 1 0 292.56671v-204.8C0 39.308387 39.440516 0 88.080516 0h205.543226z m469.784774 0h205.543226C1017.591742 0 1057.032258 39.308387 1057.032258 87.76671v204.8c0 16.16929-13.146839 29.266581-29.365677 29.26658a29.316129 29.316129 0 0 1-29.365678-29.26658v-204.8c0-16.152774-13.130323-29.250065-29.349161-29.250065H763.408516a29.316129 29.316129 0 0 1-29.365677-29.26658C734.042839 13.09729 747.189677 0 763.408516 0zM293.623742 1024H88.080516C39.440516 1024 0 984.691613 0 936.23329v-204.8c0-16.16929 13.146839-29.266581 29.365677-29.26658s29.365677 13.09729 29.365678 29.26658v204.8c0 16.152774 13.130323 29.250065 29.349161 29.250065h205.543226c16.218839 0 29.365677 13.09729 29.365677 29.26658 0 16.152774-13.146839 29.250065-29.365677 29.250065z m469.784774 0a29.316129 29.316129 0 0 1-29.365677-29.250065c0-16.16929 13.146839-29.266581 29.365677-29.26658h205.543226c16.218839 0 29.349161-13.09729 29.349161-29.250065v-204.8c0-16.16929 13.146839-29.266581 29.365678-29.26658S1057.032258 715.264 1057.032258 731.43329v204.8C1057.032258 984.691613 1017.591742 1024 968.951742 1024H763.408516zM29.365677 541.250065A29.316129 29.316129 0 0 1 0 512c0-16.152774 13.146839-29.250065 29.365677-29.250065h998.300904c16.218839 0 29.365677 13.09729 29.365677 29.250065 0 16.152774-13.146839 29.250065-29.365677 29.250065H29.365677z" p-id="1163"></path></svg>