<?xml version="1.0" encoding="UTF-8"?>
<svg width="24px" height="24px" viewBox="0 0 24 24" version="1.1" xmlns="http://www.w3.org/2000/svg" xmlns:xlink="http://www.w3.org/1999/xlink">
    <title>icon_scan_24</title>
    <g id="icon" stroke="none" stroke-width="1" fill="none" fill-rule="evenodd" stroke-linecap="round">
        <g id="icon_scan_24" stroke="#979797" stroke-width="1.5">
            <g id="扫描">
                <path d="M14,3 L19,3 C20.1045695,3 21,3.8954305 21,5 C21,7.22222222 21,8.88888889 21,10 M21,14 C21,14.96229 21,16.6289566 21,19 C21,20.1045695 20.1045695,21 19,21 C16.6289566,21 14.96229,21 14,21 M10,21 C8.88888889,21 7.22222222,21 5,21 C3.8954305,21 3,20.1045695 3,19 C3,16.6289566 3,14.96229 3,14 M3,10 C3,8.88888889 3,7.22222222 3,5 C3,3.8954305 3.8954305,3 5,3 L10,3" id="形状"></path>
                <line x1="7" y1="12" x2="17" y2="12" id="路径-6"></line>
            </g>
        </g>
    </g>
</svg>