<?xml version="1.0" encoding="UTF-8"?>
<svg width="56px" height="56px" viewBox="0 0 56 56" version="1.1" xmlns="http://www.w3.org/2000/svg" xmlns:xlink="http://www.w3.org/1999/xlink">
    <title>SCAN</title>
    <defs>
        <rect id="path-1" x="0" y="0" width="56" height="56"></rect>
        <filter id="filter-3">
            <feColorMatrix in="SourceGraphic" type="matrix" values="0 0 0 0 0.247059 0 0 0 0 0.317647 0 0 0 0 0.709804 0 0 0 1.000000 0"></feColorMatrix>
        </filter>
    </defs>
    <g id="页面-1" stroke="none" stroke-width="1" fill="none" fill-rule="evenodd">
        <g id="首页" transform="translate(-597.000000, -535.000000)">
            <g id="SCAN" transform="translate(597.000000, 535.000000)">
                <mask id="mask-2" fill="white">
                    <use xlink:href="#path-1"></use>
                </mask>
                <g id="蒙版"></g>
                <g filter="url(#filter-3)" id="编组-3">
                    <g mask="url(#mask-2)">
                        <g transform="translate(9.000000, 9.000000)">
                            <path d="M26.0139366,0 L30.3083444,0 C32.9829006,0 33.9527593,0.278476833 34.9305371,0.801398111 C35.9083149,1.32431939 36.6756806,2.09168511 37.1986019,3.06946289 C37.7215232,4.04724067 38,5.01709938 38,7.6916556 L38,12.0686239 L38,12.0686239 M38,25.9977747 L38,30.3083444 C38,32.9829006 37.7215232,33.9527593 37.1986019,34.9305371 C36.6756806,35.9083149 35.9083149,36.6756806 34.9305371,37.1986019 C33.9527593,37.7215232 32.9829006,38 30.3083444,38 L26.1282686,38 L26.1282686,38 M12.0822769,38 L7.6916556,38 C5.01709938,38 4.04724067,37.7215232 3.06946289,37.1986019 C2.09168511,36.6756806 1.32431939,35.9083149 0.801398111,34.9305371 C0.278476833,33.9527593 0,32.9829006 0,30.3083444 L0,26.1436466 L0,26.1436466 M0,12.2041019 L0,7.6916556 C0,5.01709938 0.278476833,4.04724067 0.801398111,3.06946289 C1.32431939,2.09168511 2.09168511,1.32431939 3.06946289,0.801398111 C4.04724067,0.278476833 5.01709938,0 7.6916556,0 L12.0191971,0 L12.0191971,0" id="形状" stroke="#0041DC" stroke-width="4" fill="none" stroke-linecap="round"></path>
                            <path d="M8,17 L29.3333333,17 C30.4379028,17 31.3333333,17.8954305 31.3333333,19 C31.3333333,20.1045695 30.4379028,21 29.3333333,21 L8,21 C6.8954305,21 6,20.1045695 6,19 C6,17.8954305 6.8954305,17 8,17 Z" id="矩形" stroke="none" fill="#2863FF" fill-rule="evenodd"></path>
                        </g>
                    </g>
                </g>
            </g>
        </g>
    </g>
</svg>