<?xml version="1.0" encoding="UTF-8"?>
<svg width="36px" height="36px" viewBox="0 0 36 36" version="1.1" xmlns="http://www.w3.org/2000/svg" xmlns:xlink="http://www.w3.org/1999/xlink">
    <title>send备份</title>
    <defs>
        <path d="M16.234835,26.1291261 C16.6427934,26.5370845 16.6719333,27.1804106 16.3222546,27.6219929 L16.234835,27.7201163 L13.5831845,30.3717668 C13.1438447,30.8111066 12.4315341,30.8111066 11.9921943,30.3717668 C11.5842359,29.9638083 11.555096,29.3204823 11.9047746,28.8788999 L11.9921943,28.7807765 L14.6438447,26.1291261 C15.0831845,25.6897862 15.7954951,25.6897862 16.234835,26.1291261 Z M13.0528544,22.9471456 C13.4608129,23.355104 13.4899527,23.99843 13.1402741,24.4400124 L13.0528544,24.5381358 L8.27988367,29.3111066 C7.84054384,29.7504464 7.12823324,29.7504464 6.68889341,29.3111066 C6.280935,28.9031482 6.25179511,28.2598221 6.60147375,27.8182397 L6.68889341,27.7201163 L11.4618642,22.9471456 C11.901204,22.5078057 12.6135146,22.5078057 13.0528544,22.9471456 Z M27.7205154,6.85645966 C28.5999932,6.5633004 29.4366996,7.40000682 29.1435403,8.2794846 L29.1435403,8.2794846 L22.7795793,27.3713677 C22.5151165,28.1647561 21.5081722,28.4024634 20.9168155,27.8111066 L20.9168155,27.8111066 L8.18889341,15.0831845 C7.59753663,14.4918278 7.83524393,13.4848835 8.6286323,13.2204207 L8.6286323,13.2204207 Z M25.5017284,12.0887831 L16.9397284,20.6507831 L21.2211392,24.9324749 L25.5017284,12.0887831 Z M9.87087393,19.765165 C10.2788323,20.1731235 10.3079722,20.8164495 9.95829359,21.2580319 L9.87087393,21.3561553 L7.2192235,24.0078057 C6.77988367,24.4471456 6.06757307,24.4471456 5.62823324,24.0078057 C5.22027483,23.5998473 5.19113494,22.9565212 5.54081358,22.5149389 L5.62823324,22.4168155 L8.27988367,19.765165 C8.7192235,19.3258252 9.4315341,19.3258252 9.87087393,19.765165 Z M23.9127284,10.4957831 L11.0670859,14.7784215 L15.3487284,19.0597831 L23.9127284,10.4957831 Z" id="path-1"></path>
        <filter x="-2.1%" y="-2.1%" width="104.2%" height="104.2%" filterUnits="objectBoundingBox" id="filter-2">
            <feGaussianBlur stdDeviation="0.5" in="SourceAlpha" result="shadowBlurInner1"></feGaussianBlur>
            <feOffset dx="0" dy="0" in="shadowBlurInner1" result="shadowOffsetInner1"></feOffset>
            <feComposite in="shadowOffsetInner1" in2="SourceAlpha" operator="arithmetic" k2="-1" k3="1" result="shadowInnerInner1"></feComposite>
            <feColorMatrix values="0 0 0 0 0   0 0 0 0 0   0 0 0 0 0  0 0 0 0.5 0" type="matrix" in="shadowInnerInner1"></feColorMatrix>
        </filter>
    </defs>
    <g id="icon" stroke="none" stroke-width="1" fill="none" fill-rule="evenodd" opacity="0.65">
        <g id="icon_send_36" fill-rule="nonzero">
            <g id="形状结合">
                <use fill="#979797" xlink:href="#path-1"></use>
                <use fill="black" fill-opacity="1" filter="url(#filter-2)" xlink:href="#path-1"></use>
            </g>
        </g>
    </g>
</svg>