<?xml version="1.0" encoding="UTF-8"?>
<svg width="20px" height="24px" viewBox="0 0 20 24" version="1.1" xmlns="http://www.w3.org/2000/svg" xmlns:xlink="http://www.w3.org/1999/xlink">
    <title>编组</title>
    <defs>
        <filter id="filter-1">
            <feColorMatrix in="SourceGraphic" type="matrix" values="0 0 0 0 1.000000 0 0 0 0 1.000000 0 0 0 0 1.000000 0 0 0 1.000000 0"></feColorMatrix>
        </filter>
    </defs>
    <g id="页面-1" stroke="none" stroke-width="1" fill="none" fill-rule="evenodd">
        <g id="编组" transform="translate(-350.000000, -126.000000)" filter="url(#filter-1)">
            <g transform="translate(350.000000, 126.000000)">
                <polygon id="Fill-1" fill="#231916" points="10.2855246 23.0425614 10.2855246 23.3176964 10 23.5051429 10.0737794 23.5333871 10.2855246 23.3920017 10.2855246 23.6756757 19.6774194 17.8326488 19.6774194 17.1891892"></polygon>
                <polygon id="Fill-2" fill="#231916" points="9.95623342 20.9818855 9.95623342 21.1891623 8.06451613 22.3195719 8.17293024 22.3783784 9.95623342 21.3318165 9.95623342 21.5764936 19.6774194 15.8278348 19.6774194 15.2432432"></polygon>
                <polygon id="Fill-3" fill="#231916" points="10.1817939 18.8360812 10.1817939 19.0203903 6.77419355 21.0090415 6.90729616 21.0810811 10.1817939 19.1849742 10.1817939 19.4100589 19.6774194 13.8615294 19.6774194 13.2972973"></polygon>
                <polygon id="Fill-4" fill="#231916" points="9.91607267 0.324324324 0.54454942 6.29802247 0.322580645 6.15712344 0.332518387 6.81081081 0.824048403 6.47534495 0.621256363 6.34672727 10 0.368570825"></polygon>
                <path d="M8.87786151,7.07482868 L8.57069264,6.89143363 L6.84177763,7.91136467 L6.84177763,8.26622016 L5.24824415,9.19855122 L5.14438763,9.13744606 L0.323780836,11.9482038 L0.323780836,12.3729165 L5.51580671,9.35584927 L5.38650615,9.27986564 L6.84177763,8.42924681 L6.84177763,8.81767831 L7.90146619,9.45522472 L6.77144644,10.1164016 L6.67159056,10.0576834 L0.323780836,13.7839842 L0.323780836,14.2086969 L7.04292963,10.276007 L6.96635745,10.2309738 L8.09477694,9.57146773 L9.19575207,10.2338381 L6.84177763,11.5697974 L6.84177763,11.8018856 L0.323780836,15.6280393 L0.323780836,16.029201 L6.84177763,12.1944544 L6.84177763,12.5078571 L7.82265366,13.082707 L0.322580645,17.4750382 L0.322580645,17.6367123 L0.491807564,17.7260626 L8.13022258,13.26284 L9.17406862,13.8746872 L6.84177763,15.2177277 L6.84177763,16.182123 L10.0070011,14.3354424 L10.9497111,14.8971643 L9.99995999,15.4539532 L9.99995999,15.5339151 L3.35450292,19.4145701 L3.58221914,19.5277896 L9.99995999,15.7765853 L9.99995999,15.8711869 L11.301127,15.1065768 L12.3289705,15.7189014 L10.6479831,16.6976978 L10.7916859,16.7808422 L9.99995999,17.2450982 L9.99995999,17.3802775 L4.95787797,20.3301927 L5.13198566,20.4324324 L9.99995999,17.5921564 L9.99995999,17.7414185 L11.2161534,17.026695 L11.4448298,17.1590895 L13.1282976,16.1923868 L13.1282976,15.9030125 L19.6353327,12.0790866 L19.6353327,11.5958944 L13.1282976,15.4109887 L13.1282976,15.2496328 L12.093253,14.6410477 L19.6353327,10.2089346 L19.6353327,9.80474941 L11.7403968,14.4335448 L10.8007274,13.8810523 L13.1074143,12.5117557 L13.1074143,12.2244501 L19.6353327,8.38843047 L19.6353327,7.98424531 L13.1074143,11.8114333 L13.1074143,11.5673309 L12.0755702,10.9575523 L19.6774194,6.51581194 L19.6774194,6.3713237 L19.4857889,6.25229594 L11.7649607,10.7739186 L10.7784038,10.1908735 L13.1282976,8.82722599 L13.1282976,8.46871056 L18.1738202,5.51975011 L17.9625066,5.37367059 L13.1282976,8.20225069 L13.1282976,7.91136467 L9.96627464,9.73584698 L8.88898327,9.10737087 L16.6118917,4.59354547 L16.4257821,4.46743652 L8.69231199,8.99248044 L7.62342197,8.36885773 L9.34049509,7.35123405 L9.01692363,7.1578935 L14.9969949,3.66288525 L14.8718549,3.56756757 L8.87786151,7.07482868 Z M7.65142642,12.024824 L9.98467756,10.6619721 L10.9657136,11.2420732 L8.63550295,12.6067551 L7.65142642,12.024824 Z M8.94251179,12.7882406 L11.2753629,11.42515 L12.32577,12.0463858 L9.98467756,13.4044639 L8.94251179,12.7882406 Z" id="Fill-5" fill="#231916"></path>
                <polygon id="Fill-6" fill="#231916" points="3.62258405 8.44977874 3.48288679 8.36802693 0.322580645 10.1979437 0.322580645 10.7027027 3.90182116 8.61320448 3.75850358 8.52927263 13.2258065 3.02441767 13.1239652 2.91891892"></polygon>
                <polygon id="Fill-7" fill="#231916" points="2.12960343 7.33619818 1.92671926 7.2161044 0.322580645 8.15967533 0.322580645 8.75675676 2.42957873 7.51371759 2.22701685 7.39378512 11.9354839 1.68187015 11.8314634 1.62162162"></polygon>
                <polygon id="Fill-8" fill="#231916" points="6.77419355 15.2432432 1.61290323 18.3393425 1.87089819 18.4864865 6.77419355 15.5480177"></polygon>
            </g>
        </g>
    </g>
</svg>