<?xml version="1.0" encoding="UTF-8"?>
<svg width="36px" height="36px" viewBox="0 0 36 36" version="1.1" xmlns="http://www.w3.org/2000/svg" xmlns:xlink="http://www.w3.org/1999/xlink">
    <title>编组_3</title>
    <defs>
        <path d="M22.5,4.875 C25.1923882,4.875 27.375,7.05761184 27.375,9.75 C27.375,10.3713203 26.8713203,10.875 26.25,10.875 C25.670101,10.875 25.1926801,10.4362391 25.1316013,9.87258114 L25.125,9.75 C25.125,8.35601205 24.038413,7.2158101 22.6660091,7.13016437 L22.5,7.125 L14.25,7.125 C12.448171,7.125 10.9761281,8.53698197 10.8799939,10.3148232 L10.875,10.5 L10.875,13.5 L10.8743687,13.5434874 C10.8736936,13.5605441 10.8726305,13.5775631 10.8711836,13.5945311 L10.875,13.5 C10.875,13.552908 10.8713477,13.6049629 10.8642815,13.6559264 C10.8616249,13.6745975 10.858452,13.6936262 10.8547971,13.7125493 C10.851427,13.7309515 10.8475129,13.7489606 10.8431734,13.7668032 C10.8378857,13.7874145 10.8322774,13.8078334 10.8261023,13.8280764 C10.8215211,13.8441467 10.8162477,13.860158 10.8106292,13.8760061 C10.8034084,13.8954487 10.7960741,13.9144775 10.7882279,13.9333011 C10.7806554,13.9521467 10.7722413,13.9708278 10.7633408,13.9892296 C10.7545664,14.0069578 10.7456288,14.0243286 10.7362371,14.0414706 C10.7272984,14.0579466 10.7177767,14.0742669 10.7078628,14.0903192 C10.6969155,14.1081095 10.6855531,14.1254867 10.6736973,14.1425622 C10.6641894,14.1560177 10.6542174,14.1696717 10.6439503,14.1830879 C10.6324627,14.1984552 10.6206819,14.2131077 10.6085124,14.2274828 C10.5936739,14.2445602 10.5786616,14.2612217 10.5631701,14.277421 C10.5508011,14.2908037 10.5377661,14.3037878 10.5243779,14.3164765 C10.5119476,14.3278683 10.4992558,14.3393794 10.4863053,14.3505996 C10.4680526,14.366709 10.4490533,14.3820806 10.4294671,14.3968839 C10.41656,14.4064939 10.4039556,14.4156446 10.3911579,14.4245365 C10.3811989,14.4314847 10.370577,14.4385763 10.359803,14.4455062 L10.3403192,14.4578628 C10.3233106,14.4683673 10.3060013,14.4784314 10.288407,14.4880393 L10.2531153,14.5062306 L8.0822949,15.5916408 C7.98065969,15.6424584 7.90897208,15.7357251 7.88436244,15.8437233 L7.875,15.927051 L7.875,28.5 C7.875,28.6812184 8.00354325,28.832414 8.17442442,28.8673813 L8.25,28.875 L27.75,28.875 C27.9312184,28.875 28.082414,28.7464568 28.1173813,28.5755756 L28.125,28.5 L28.125,16.5 C28.125,16.3187816 27.9964568,16.167586 27.8255756,16.1326187 L27.75,16.125 L13.5,16.125 C12.8786797,16.125 12.375,15.6213203 12.375,15 C12.375,14.420101 12.8137609,13.9426801 13.3774189,13.8816013 L13.5,13.875 L27.75,13.875 C29.143988,13.875 30.2841899,14.961587 30.3698356,16.3339909 L30.375,16.5 L30.375,28.5 C30.375,29.893988 29.288413,31.0341899 27.9160091,31.1198356 L27.75,31.125 L8.25,31.125 C6.85601205,31.125 5.7158101,30.038413 5.63016437,28.6660091 L5.625,28.5 L5.625,15.927051 C5.625,14.9949166 6.11873107,14.1377846 6.91321472,13.6679006 L7.07606431,13.5791796 L8.625,12.804 L8.625,10.5 C8.625,7.46736499 11.0249022,4.99525718 14.0291263,4.87925694 L14.25,4.875 L22.5,4.875 Z M18,18.375 C18.579899,18.375 19.0573199,18.8137609 19.1183987,19.3774189 L19.125,19.5 L19.125,25.5 C19.125,26.1213203 18.6213203,26.625 18,26.625 C17.420101,26.625 16.9426801,26.1862391 16.8816013,25.6225811 L16.875,25.5 L16.875,19.5 C16.875,18.8786797 17.3786797,18.375 18,18.375 Z M29.4315086,11.2722028 L29.528543,11.3036425 L32.3139731,12.4178145 C32.6985607,12.5716496 32.8856226,13.0081274 32.7317876,13.392715 C32.5907721,13.7452537 32.2122582,13.9318159 31.8539214,13.8419693 L31.7568871,13.8105295 L28.971457,12.6963575 C28.5868694,12.5425225 28.3998074,12.1060446 28.5536425,11.721457 C28.6946579,11.3689183 29.0731719,11.1823561 29.4315086,11.2722028 Z M32.7317876,8.35728496 C32.8728031,8.70982363 32.7273704,9.10596448 32.4059219,9.28803193 L32.3139731,9.33218549 L29.528543,10.4463575 C29.1439554,10.6001926 28.7074775,10.4131306 28.5536425,10.028543 C28.412627,9.67600434 28.5580597,9.27986349 28.8795082,9.09779604 L28.971457,9.05364248 L31.7568871,7.93947045 C32.1414747,7.7856354 32.5779525,7.97269733 32.7317876,8.35728496 Z" id="path-1"></path>
        <filter x="-1.8%" y="-1.9%" width="103.7%" height="103.8%" filterUnits="objectBoundingBox" id="filter-2">
            <feGaussianBlur stdDeviation="0.5" in="SourceAlpha" result="shadowBlurInner1"></feGaussianBlur>
            <feOffset dx="0" dy="0" in="shadowBlurInner1" result="shadowOffsetInner1"></feOffset>
            <feComposite in="shadowOffsetInner1" in2="SourceAlpha" operator="arithmetic" k2="-1" k3="1" result="shadowInnerInner1"></feComposite>
            <feColorMatrix values="0 0 0 0 0   0 0 0 0 0   0 0 0 0 0  0 0 0 0.5 0" type="matrix" in="shadowInnerInner1"></feColorMatrix>
        </filter>
    </defs>
    <g id="icon" stroke="none" stroke-width="1" fill="none" fill-rule="evenodd" opacity="0.65">
        <g id="icon_unlock_36" fill-rule="nonzero">
            <g id="形状结合">
                <use fill="#979797" xlink:href="#path-1"></use>
                <use fill="black" fill-opacity="1" filter="url(#filter-2)" xlink:href="#path-1"></use>
            </g>
        </g>
    </g>
</svg>