<svg id="Layer_1" enable-background="new 0 0 507.246 507.246" height="512" viewBox="0 0 507.246 507.246" width="512" xmlns="http://www.w3.org/2000/svg"><path d="m457.262 89.821c-2.734-35.285-32.298-63.165-68.271-63.165h-320.491c-37.771 0-68.5 30.729-68.5 68.5v316.934c0 37.771 30.729 68.5 68.5 68.5h370.247c37.771 0 68.5-30.729 68.5-68.5v-256.333c-.001-31.354-21.184-57.836-49.985-65.936zm-388.762-31.165h320.492c17.414 0 32.008 12.261 35.629 28.602h-356.121c-13.411 0-25.924 3.889-36.5 10.577v-2.679c0-20.126 16.374-36.5 36.5-36.5zm370.246 389.934h-370.246c-20.126 0-36.5-16.374-36.5-36.5v-256.333c0-20.126 16.374-36.5 36.5-36.5h370.247c20.126 0 36.5 16.374 36.5 36.5v55.838h-102.026c-40.43 0-73.322 32.893-73.322 73.323s32.893 73.323 73.322 73.323h102.025v53.849c0 20.126-16.374 36.5-36.5 36.5zm36.5-122.349h-102.025c-22.785 0-41.322-18.537-41.322-41.323s18.537-41.323 41.322-41.323h102.025z"/><circle cx="379.16" cy="286.132" r="16.658"/></svg>