<?xml version="1.0" encoding="UTF-8"?>
<svg width="16px" height="16px" viewBox="0 0 16 16" version="1.1" xmlns="http://www.w3.org/2000/svg" xmlns:xlink="http://www.w3.org/1999/xlink">
    <title>编组_3</title>
    <defs>
        <filter id="filter-1">
            <feColorMatrix in="SourceGraphic" type="matrix" values="0 0 0 0 1.000000 0 0 0 0 0.788235 0 0 0 0 0.321569 0 0 0 1.000000 0"></feColorMatrix>
        </filter>
    </defs>
    <g id="页面-1" stroke="none" stroke-width="1" fill="none" fill-rule="evenodd">
        <g id="编组-3" transform="translate(-159.000000, -266.000000)" filter="url(#filter-1)">
            <g transform="translate(159.000000, 266.000000)">
                <g id="编组-2" transform="translate(1.000000, 1.000000)" stroke="#979797" stroke-width="1.5">
                    <line x1="0.636363636" y1="0.636363636" x2="5.09090909" y2="5.09090909" id="路径-76"></line>
                    <line x1="8.90909091" y1="0.636363636" x2="13.3636364" y2="5.09090909" id="路径-76备份" stroke-linecap="round" transform="translate(11.136364, 2.863636) scale(-1, 1) translate(-11.136364, -2.863636) "></line>
                    <line x1="0.636363636" y1="0.636363636" x2="3.81818182" y2="0.636363636" id="路径-77" stroke-linecap="round" stroke-linejoin="round"></line>
                    <line x1="0.636363636" y1="0.636363636" x2="0.636363636" y2="3.81818182" id="路径-78" stroke-linecap="round" stroke-linejoin="round"></line>
                    <line x1="13.3636364" y1="0.636363636" x2="13.3636364" y2="3.81818182" id="路径-78备份" stroke-linecap="round" stroke-linejoin="round" transform="translate(13.363636, 2.227273) scale(-1, 1) translate(-13.363636, -2.227273) "></line>
                    <line x1="0.636363636" y1="0.636363636" x2="5.09090909" y2="5.09090909" id="路径-76" stroke-linecap="round"></line>
                    <line x1="0.636363636" y1="0.636363636" x2="3.81818182" y2="0.636363636" id="路径-77" stroke-linecap="round" stroke-linejoin="round"></line>
                    <line x1="10.1818182" y1="0.636363636" x2="13.3636364" y2="0.636363636" id="路径-77备份-2" stroke-linecap="round" stroke-linejoin="round"></line>
                    <line x1="0.636363636" y1="0.636363636" x2="0.636363636" y2="3.81818182" id="路径-78" stroke-linecap="round" stroke-linejoin="round"></line>
                </g>
                <g id="编组-2" transform="translate(8.000000, 12.454545) scale(1, -1) translate(-8.000000, -12.454545) translate(1.000000, 9.909091)" stroke="#979797" stroke-width="1.5">
                    <line x1="0.636363636" y1="0.636363636" x2="5.09090909" y2="5.09090909" id="路径-76"></line>
                    <line x1="8.90909091" y1="0.636363636" x2="13.3636364" y2="5.09090909" id="路径-76备份" stroke-linecap="round" transform="translate(11.136364, 2.863636) scale(-1, 1) translate(-11.136364, -2.863636) "></line>
                    <line x1="0.636363636" y1="0.636363636" x2="3.81818182" y2="0.636363636" id="路径-77" stroke-linecap="round" stroke-linejoin="round"></line>
                    <line x1="0.636363636" y1="0.636363636" x2="0.636363636" y2="3.81818182" id="路径-78" stroke-linecap="round" stroke-linejoin="round"></line>
                    <line x1="13.3636364" y1="0.636363636" x2="13.3636364" y2="3.81818182" id="路径-78备份" stroke-linecap="round" stroke-linejoin="round" transform="translate(13.363636, 2.227273) scale(-1, 1) translate(-13.363636, -2.227273) "></line>
                    <line x1="0.636363636" y1="0.636363636" x2="5.09090909" y2="5.09090909" id="路径-76" stroke-linecap="round"></line>
                    <line x1="0.636363636" y1="0.636363636" x2="3.81818182" y2="0.636363636" id="路径-77" stroke-linecap="round" stroke-linejoin="round"></line>
                    <line x1="10.1818182" y1="0.636363636" x2="13.3636364" y2="0.636363636" id="路径-77备份-2" stroke-linecap="round" stroke-linejoin="round"></line>
                </g>
            </g>
        </g>
    </g>
</svg>