<svg xmlns="http://www.w3.org/2000/svg" width="524.17" height="121.01" viewBox="0 0 524.17 121.01">
	<path d="M12.9,121C5.8,121,0,115.2,0,108.1V45.8C0,38.7,5.8,33,12.9,33c7.1,0,12.9,5.8,12.9,12.9v62.3
	C25.7,115.2,20,121,12.9,121z" fill="#fff"/>
	<path d="M67.4,121c-3.8,0-7.5-1.7-9.9-4.6l-26-31.1c-4-4.8-4-11.7,0-16.5l26-31.2c4.6-5.5,12.7-6.2,18.1-1.7
	s6.2,12.7,1.7,18.1l0,0L58.2,77l19.1,22.9c4.5,5.5,3.8,13.6-1.7,18.1C73.3,119.9,70.4,121,67.4,121z" fill="#fff"/>
	<path d="M153,121H98.5c-7.1,0-12.9-5.8-12.9-12.9V45.8c0-7.1,5.8-12.9,12.9-12.9c7.1,0,12.9,5.8,12.9,12.9v49.4h28.8
	V45.8c0-7.1,5.8-12.9,12.9-12.9c7.1,0,12.9,5.8,12.9,12.9v62.3C165.9,115.2,160.1,121,153,121C153,121,153,121,153,121z" fill="#fff"/>
	<path d="M238.7,121h-54.5c-7.1-0.2-12.7-6.1-12.5-13.2c0.2-6.8,5.7-12.3,12.5-12.5h41.6v-0.7l-45.2-12.9
	c-5.5-1.6-9.3-6.6-9.3-12.4V45.8c0-7.1,5.8-12.8,12.9-12.8h54.5c7.1,0,12.9,5.8,12.9,12.9c0,7.1-5.8,12.9-12.9,12.9h-41.6v0.8
	l45.2,12.9c5.5,1.6,9.3,6.6,9.3,12.4v23.3C251.6,115.3,245.8,121,238.7,121L238.7,121z" fill="#fff"/>
	<path d="M417.8,121c-7.1,0-12.8-5.8-12.8-12.9V73.8l-6,5.2c-4.8,4.1-11.9,4.1-16.8,0l-6-5.2v34.3
	c0,7.1-5.8,12.9-12.9,12.9c-7.1,0-12.9-5.8-12.9-12.9c0,0,0,0,0,0V45.8c0-7.1,5.8-12.9,12.9-12.9c3.1,0,6,1.1,8.4,3.1l18.9,16.2
	l18.8-16.2c5.4-4.6,13.5-4,18.2,1.4c2,2.3,3.1,5.3,3.1,8.4v62.3C430.8,115.2,425,121,417.8,121L417.8,121L417.8,121z" fill="#fff"/>
	<path d="M332.1,121c-7.1,0-12.9-5.8-12.9-12.9V97.2l-32.1-38.5h-4.4v36.5h19.4c7.1,0.2,12.7,6.1,12.5,13.2
	c-0.2,6.8-5.7,12.3-12.5,12.5h-32.3c-7.1,0-12.8-5.8-12.8-12.9V45.8c0-7.1,5.8-12.8,12.8-12.8h23.4c3.8,0,7.5,1.7,9.9,4.6L342,84.3
	c1.9,2.3,3,5.2,3,8.2v15.6C345,115.2,339.3,121,332.1,121L332.1,121z" fill="#fff"/>
	<path d="M511.3,121c-7.1,0-12.9-5.8-12.9-12.9V97.2l-32.1-38.5h-4.5v36.5h19.4c7.1,0.2,12.7,6.1,12.5,13.2
	c-0.2,6.8-5.7,12.3-12.5,12.5H449c-7.1,0-12.9-5.8-12.9-12.9V45.8c0-7.1,5.8-12.8,12.9-12.8h23.4c3.8,0,7.4,1.7,9.9,4.6l38.9,46.7
	c1.9,2.3,3,5.2,3,8.2v15.6C524.2,115.3,518.4,121,511.3,121L511.3,121z" fill="#fff"/>
	<path d="M282.1,1.6c-0.9-0.8-1.9-1.4-3.1-1.6c-1.5-0.2-3,0.8-4,1.5s-3,2.5-3.8,3.2s-2.8,1.1-6.1,3.1
	s-16.1,10.2-16.1,10.2h3.3l-14.9,7.7h1.5l-2.1,1.6c1.2,0.3,2.4,0.1,3.5-0.5v0.5c0,0,17.7-7,21.1-5.2l-2.1,0.6c0.2,0,3.5,0.2,3.5,0.2
	c0.2,1.4,1,2.7,2.2,3.4c2,1.3,2.1,2.1,2.1,2.1s-1,0.4-1,1c1.9-0.6,3.9-0.6,5.7,0c0,0-0.1-0.6-1.5-1c-1.4-0.6-2.6-1.5-3.5-2.8
	c-0.8-1.1-1.1-2.5-0.6-3.8c0.5-1.3,2.2-2,5.7-3.8c4.1-2.1,5.1-3.7,5.6-5s1.5-3.7,1.9-4.9c0.4-1.1,1.1-2,2-2.8
	c1.1-0.6,2.3-1.1,3.4-1.5C285,3.9,282.8,2.1,282.1,1.6z" fill="#fff"/>
</svg>
